<svg width="447" height="62" viewBox="0 0 447 62" fill="none" xmlns="http://www.w3.org/2000/svg">
<circle cx="31.2197" cy="31" r="30" stroke="#CCAA60" stroke-width="2"/>
<path d="M80.1157 53.22C79.1624 53.22 78.2971 52.9853 77.5197 52.516C76.7424 52.032 76.1264 51.3793 75.6717 50.558C75.2317 49.7367 75.0117 48.8127 75.0117 47.786C75.0117 46.7593 75.2317 45.8353 75.6717 45.014C76.1264 44.1927 76.7351 43.54 77.4977 43.056C78.2751 42.572 79.1477 42.33 80.1157 42.33C80.9077 42.33 81.6117 42.4987 82.2277 42.836C82.8584 43.1587 83.3644 43.6133 83.7457 44.2C84.1271 44.772 84.3397 45.4393 84.3837 46.202V49.348C84.3397 50.096 84.1271 50.7633 83.7457 51.35C83.3791 51.9367 82.8804 52.3987 82.2497 52.736C81.6337 53.0587 80.9224 53.22 80.1157 53.22ZM80.4457 51.35C81.4284 51.35 82.2204 51.02 82.8217 50.36C83.4231 49.6853 83.7237 48.8273 83.7237 47.786C83.7237 47.0673 83.5844 46.444 83.3057 45.916C83.0417 45.3733 82.6604 44.9553 82.1617 44.662C81.6631 44.354 81.0837 44.2 80.4237 44.2C79.7637 44.2 79.1771 44.354 78.6637 44.662C78.1651 44.97 77.7691 45.3953 77.4757 45.938C77.1971 46.466 77.0577 47.0747 77.0577 47.764C77.0577 48.468 77.1971 49.0913 77.4757 49.634C77.7691 50.162 78.1724 50.58 78.6857 50.888C79.1991 51.196 79.7857 51.35 80.4457 51.35ZM83.5917 53V50.184L83.9657 47.632L83.5917 45.102V42.55H85.5937V53H83.5917ZM88.4764 53V37.292H90.4564V53H88.4764ZM98.1934 53.22C97.152 53.22 96.2134 52.9853 95.3774 52.516C94.5414 52.032 93.8814 51.3793 93.3974 50.558C92.9134 49.7367 92.6714 48.8053 92.6714 47.764C92.6714 46.7373 92.906 45.8133 93.3754 44.992C93.8594 44.1707 94.5047 43.5253 95.3114 43.056C96.1327 42.572 97.0494 42.33 98.0614 42.33C99.0294 42.33 99.88 42.55 100.613 42.99C101.361 43.43 101.941 44.0387 102.351 44.816C102.777 45.5933 102.989 46.4733 102.989 47.456C102.989 47.6027 102.982 47.764 102.967 47.94C102.953 48.1013 102.923 48.292 102.879 48.512H94.0574V46.862H101.823L101.097 47.5C101.097 46.796 100.973 46.202 100.723 45.718C100.474 45.2193 100.122 44.838 99.6674 44.574C99.2127 44.2953 98.6627 44.156 98.0174 44.156C97.3427 44.156 96.7487 44.3027 96.2354 44.596C95.722 44.8893 95.326 45.3 95.0474 45.828C94.7687 46.356 94.6294 46.9793 94.6294 47.698C94.6294 48.4313 94.776 49.0767 95.0694 49.634C95.3627 50.1767 95.7807 50.602 96.3234 50.91C96.866 51.2033 97.4894 51.35 98.1934 51.35C98.78 51.35 99.3154 51.2473 99.7994 51.042C100.298 50.8367 100.723 50.5287 101.075 50.118L102.351 51.416C101.853 52.0027 101.237 52.45 100.503 52.758C99.7847 53.066 99.0147 53.22 98.1934 53.22ZM111.69 53L108.434 48.424L108.06 48.072L103.946 42.55H106.344L109.314 46.62L109.688 46.928L114.088 53H111.69ZM103.748 53L108.06 47.192L109.182 48.644L106.08 53H103.748ZM109.842 48.05L108.698 46.642L111.58 42.55H113.89L109.842 48.05ZM120.034 53.22C119.08 53.22 118.215 52.9853 117.438 52.516C116.66 52.032 116.044 51.3793 115.59 50.558C115.15 49.7367 114.93 48.8127 114.93 47.786C114.93 46.7593 115.15 45.8353 115.59 45.014C116.044 44.1927 116.653 43.54 117.416 43.056C118.193 42.572 119.066 42.33 120.034 42.33C120.826 42.33 121.53 42.4987 122.146 42.836C122.776 43.1587 123.282 43.6133 123.664 44.2C124.045 44.772 124.258 45.4393 124.302 46.202V49.348C124.258 50.096 124.045 50.7633 123.664 51.35C123.297 51.9367 122.798 52.3987 122.168 52.736C121.552 53.0587 120.84 53.22 120.034 53.22ZM120.364 51.35C121.346 51.35 122.138 51.02 122.74 50.36C123.341 49.6853 123.642 48.8273 123.642 47.786C123.642 47.0673 123.502 46.444 123.224 45.916C122.96 45.3733 122.578 44.9553 122.08 44.662C121.581 44.354 121.002 44.2 120.342 44.2C119.682 44.2 119.095 44.354 118.582 44.662C118.083 44.97 117.687 45.3953 117.394 45.938C117.115 46.466 116.976 47.0747 116.976 47.764C116.976 48.468 117.115 49.0913 117.394 49.634C117.687 50.162 118.09 50.58 118.604 50.888C119.117 51.196 119.704 51.35 120.364 51.35ZM123.51 53V50.184L123.884 47.632L123.51 45.102V42.55H125.512V53H123.51ZM135.786 53V46.906C135.786 46.114 135.537 45.4613 135.038 44.948C134.54 44.4347 133.894 44.178 133.102 44.178C132.574 44.178 132.105 44.2953 131.694 44.53C131.284 44.7647 130.961 45.0873 130.726 45.498C130.492 45.9087 130.374 46.378 130.374 46.906L129.56 46.444C129.56 45.652 129.736 44.948 130.088 44.332C130.44 43.716 130.932 43.232 131.562 42.88C132.193 42.5133 132.904 42.33 133.696 42.33C134.488 42.33 135.185 42.528 135.786 42.924C136.402 43.32 136.886 43.8407 137.238 44.486C137.59 45.1167 137.766 45.7913 137.766 46.51V53H135.786ZM128.394 53V42.55H130.374V53H128.394ZM144.869 53.22C143.901 53.22 143.036 52.9853 142.273 52.516C141.51 52.032 140.902 51.3793 140.447 50.558C140.007 49.7367 139.787 48.8127 139.787 47.786C139.787 46.7593 140.007 45.8353 140.447 45.014C140.902 44.1927 141.51 43.54 142.273 43.056C143.036 42.572 143.901 42.33 144.869 42.33C145.646 42.33 146.35 42.4987 146.981 42.836C147.612 43.1587 148.118 43.6133 148.499 44.2C148.895 44.772 149.115 45.4393 149.159 46.202V49.348C149.115 50.096 148.902 50.7633 148.521 51.35C148.14 51.9367 147.634 52.3987 147.003 52.736C146.372 53.0587 145.661 53.22 144.869 53.22ZM145.199 51.35C145.859 51.35 146.431 51.196 146.915 50.888C147.414 50.58 147.802 50.162 148.081 49.634C148.36 49.0913 148.499 48.4753 148.499 47.786C148.499 47.0673 148.352 46.444 148.059 45.916C147.78 45.388 147.392 44.97 146.893 44.662C146.409 44.354 145.837 44.2 145.177 44.2C144.517 44.2 143.938 44.354 143.439 44.662C142.94 44.97 142.544 45.3953 142.251 45.938C141.972 46.466 141.833 47.0747 141.833 47.764C141.833 48.468 141.972 49.0913 142.251 49.634C142.544 50.162 142.94 50.58 143.439 50.888C143.952 51.196 144.539 51.35 145.199 51.35ZM150.369 53H148.367V50.184L148.741 47.632L148.367 45.102V37.292H150.369V53ZM153.252 53V42.55H155.232V53H153.252ZM155.232 47.038L154.484 46.708C154.484 45.3733 154.792 44.31 155.408 43.518C156.024 42.726 156.911 42.33 158.07 42.33C158.598 42.33 159.074 42.4253 159.5 42.616C159.925 42.792 160.321 43.0927 160.688 43.518L159.39 44.86C159.17 44.6253 158.928 44.4567 158.664 44.354C158.4 44.2513 158.092 44.2 157.74 44.2C157.006 44.2 156.405 44.4347 155.936 44.904C155.466 45.3733 155.232 46.0847 155.232 47.038ZM166.578 53.22C165.537 53.22 164.598 52.9853 163.762 52.516C162.926 52.032 162.266 51.3793 161.782 50.558C161.298 49.7367 161.056 48.8053 161.056 47.764C161.056 46.7373 161.291 45.8133 161.76 44.992C162.244 44.1707 162.889 43.5253 163.696 43.056C164.517 42.572 165.434 42.33 166.446 42.33C167.414 42.33 168.265 42.55 168.998 42.99C169.746 43.43 170.325 44.0387 170.736 44.816C171.161 45.5933 171.374 46.4733 171.374 47.456C171.374 47.6027 171.367 47.764 171.352 47.94C171.337 48.1013 171.308 48.292 171.264 48.512H162.442V46.862H170.208L169.482 47.5C169.482 46.796 169.357 46.202 169.108 45.718C168.859 45.2193 168.507 44.838 168.052 44.574C167.597 44.2953 167.047 44.156 166.402 44.156C165.727 44.156 165.133 44.3027 164.62 44.596C164.107 44.8893 163.711 45.3 163.432 45.828C163.153 46.356 163.014 46.9793 163.014 47.698C163.014 48.4313 163.161 49.0767 163.454 49.634C163.747 50.1767 164.165 50.602 164.708 50.91C165.251 51.2033 165.874 51.35 166.578 51.35C167.165 51.35 167.7 51.2473 168.184 51.042C168.683 50.8367 169.108 50.5287 169.46 50.118L170.736 51.416C170.237 52.0027 169.621 52.45 168.888 52.758C168.169 53.066 167.399 53.22 166.578 53.22ZM176.855 53.22C176.268 53.22 175.711 53.1467 175.183 53C174.67 52.8387 174.193 52.6187 173.753 52.34C173.313 52.0467 172.932 51.702 172.609 51.306L173.885 50.03C174.266 50.4993 174.706 50.8513 175.205 51.086C175.704 51.306 176.261 51.416 176.877 51.416C177.493 51.416 177.97 51.3133 178.307 51.108C178.644 50.888 178.813 50.5873 178.813 50.206C178.813 49.8247 178.674 49.5313 178.395 49.326C178.131 49.106 177.786 48.93 177.361 48.798C176.936 48.6513 176.481 48.512 175.997 48.38C175.528 48.2333 175.08 48.05 174.655 47.83C174.23 47.61 173.878 47.3093 173.599 46.928C173.335 46.5467 173.203 46.0407 173.203 45.41C173.203 44.7793 173.357 44.2367 173.665 43.782C173.973 43.3127 174.398 42.9533 174.941 42.704C175.498 42.4547 176.166 42.33 176.943 42.33C177.764 42.33 178.49 42.4767 179.121 42.77C179.766 43.0487 180.294 43.474 180.705 44.046L179.429 45.322C179.136 44.9407 178.769 44.6473 178.329 44.442C177.904 44.2367 177.42 44.134 176.877 44.134C176.305 44.134 175.865 44.2367 175.557 44.442C175.264 44.6327 175.117 44.904 175.117 45.256C175.117 45.608 175.249 45.8793 175.513 46.07C175.777 46.2607 176.122 46.422 176.547 46.554C176.987 46.686 177.442 46.8253 177.911 46.972C178.38 47.104 178.828 47.2873 179.253 47.522C179.678 47.7567 180.023 48.072 180.287 48.468C180.566 48.864 180.705 49.3847 180.705 50.03C180.705 51.0127 180.353 51.79 179.649 52.362C178.96 52.934 178.028 53.22 176.855 53.22ZM187.696 53.22C186.669 53.22 185.745 52.978 184.924 52.494C184.102 52.01 183.45 51.3573 182.966 50.536C182.482 49.7 182.24 48.7687 182.24 47.742C182.24 46.73 182.482 45.8207 182.966 45.014C183.45 44.1927 184.102 43.54 184.924 43.056C185.745 42.572 186.669 42.33 187.696 42.33C188.708 42.33 189.624 42.572 190.446 43.056C191.282 43.5253 191.942 44.1707 192.426 44.992C192.91 45.8133 193.152 46.73 193.152 47.742C193.152 48.7687 192.91 49.7 192.426 50.536C191.942 51.3573 191.282 52.01 190.446 52.494C189.624 52.978 188.708 53.22 187.696 53.22ZM187.696 51.306C188.356 51.306 188.942 51.152 189.456 50.844C189.969 50.536 190.372 50.118 190.666 49.59C190.959 49.0473 191.106 48.4313 191.106 47.742C191.106 47.0673 190.952 46.466 190.644 45.938C190.35 45.41 189.947 44.9993 189.434 44.706C188.935 44.398 188.356 44.244 187.696 44.244C187.036 44.244 186.449 44.398 185.936 44.706C185.422 44.9993 185.019 45.41 184.726 45.938C184.432 46.466 184.286 47.0673 184.286 47.742C184.286 48.4313 184.432 49.0473 184.726 49.59C185.019 50.118 185.422 50.536 185.936 50.844C186.449 51.152 187.036 51.306 187.696 51.306ZM199.585 53.22C198.734 53.22 197.964 53.0293 197.275 52.648C196.6 52.252 196.072 51.7093 195.691 51.02C195.309 50.3307 195.119 49.5313 195.119 48.622V42.55H197.099V48.534C197.099 49.106 197.194 49.6047 197.385 50.03C197.59 50.4407 197.883 50.756 198.265 50.976C198.646 51.196 199.093 51.306 199.607 51.306C200.384 51.306 200.993 51.064 201.433 50.58C201.873 50.0813 202.093 49.3993 202.093 48.534V42.55H204.073V48.622C204.073 49.5313 203.882 50.3307 203.501 51.02C203.119 51.7093 202.591 52.252 201.917 52.648C201.257 53.0293 200.479 53.22 199.585 53.22ZM205.89 51.922L212.094 43.628H214.426L208.222 51.922H205.89ZM205.89 53V51.922L207.65 51.196H214.294V53H205.89ZM206.264 44.354V42.55H214.426V43.628L212.6 44.354H206.264ZM220.817 53.22C219.864 53.22 218.998 52.9853 218.221 52.516C217.444 52.032 216.828 51.3793 216.373 50.558C215.933 49.7367 215.713 48.8127 215.713 47.786C215.713 46.7593 215.933 45.8353 216.373 45.014C216.828 44.1927 217.436 43.54 218.199 43.056C218.976 42.572 219.849 42.33 220.817 42.33C221.609 42.33 222.313 42.4987 222.929 42.836C223.56 43.1587 224.066 43.6133 224.447 44.2C224.828 44.772 225.041 45.4393 225.085 46.202V49.348C225.041 50.096 224.828 50.7633 224.447 51.35C224.08 51.9367 223.582 52.3987 222.951 52.736C222.335 53.0587 221.624 53.22 220.817 53.22ZM221.147 51.35C222.13 51.35 222.922 51.02 223.523 50.36C224.124 49.6853 224.425 48.8273 224.425 47.786C224.425 47.0673 224.286 46.444 224.007 45.916C223.743 45.3733 223.362 44.9553 222.863 44.662C222.364 44.354 221.785 44.2 221.125 44.2C220.465 44.2 219.878 44.354 219.365 44.662C218.866 44.97 218.47 45.3953 218.177 45.938C217.898 46.466 217.759 47.0747 217.759 47.764C217.759 48.468 217.898 49.0913 218.177 49.634C218.47 50.162 218.874 50.58 219.387 50.888C219.9 51.196 220.487 51.35 221.147 51.35ZM224.293 53V50.184L224.667 47.632L224.293 45.102V42.55H226.295V53H224.293ZM233.622 53.22C232.668 53.22 231.803 52.9853 231.026 52.516C230.248 52.032 229.632 51.3793 229.178 50.558C228.738 49.7367 228.518 48.8127 228.518 47.786C228.518 46.7593 228.738 45.8353 229.178 45.014C229.632 44.1927 230.241 43.54 231.004 43.056C231.781 42.572 232.654 42.33 233.622 42.33C234.414 42.33 235.118 42.4987 235.734 42.836C236.364 43.1587 236.87 43.6133 237.252 44.2C237.633 44.772 237.846 45.4393 237.89 46.202V49.348C237.846 50.096 237.633 50.7633 237.252 51.35C236.885 51.9367 236.386 52.3987 235.756 52.736C235.14 53.0587 234.428 53.22 233.622 53.22ZM233.952 51.35C234.934 51.35 235.726 51.02 236.328 50.36C236.929 49.6853 237.23 48.8273 237.23 47.786C237.23 47.0673 237.09 46.444 236.812 45.916C236.548 45.3733 236.166 44.9553 235.668 44.662C235.169 44.354 234.59 44.2 233.93 44.2C233.27 44.2 232.683 44.354 232.17 44.662C231.671 44.97 231.275 45.3953 230.982 45.938C230.703 46.466 230.564 47.0747 230.564 47.764C230.564 48.468 230.703 49.0913 230.982 49.634C231.275 50.162 231.678 50.58 232.192 50.888C232.705 51.196 233.292 51.35 233.952 51.35ZM237.098 53V50.184L237.472 47.632L237.098 45.102V42.55H239.1V53H237.098ZM246.404 53.22C245.436 53.22 244.571 52.9853 243.808 52.516C243.046 52.032 242.437 51.3793 241.982 50.558C241.542 49.7367 241.322 48.8127 241.322 47.786C241.322 46.7593 241.542 45.8353 241.982 45.014C242.437 44.1927 243.046 43.54 243.808 43.056C244.571 42.572 245.436 42.33 246.404 42.33C247.182 42.33 247.886 42.4987 248.516 42.836C249.147 43.1587 249.653 43.6133 250.034 44.2C250.43 44.772 250.65 45.4393 250.694 46.202V49.348C250.65 50.096 250.438 50.7633 250.056 51.35C249.675 51.9367 249.169 52.3987 248.538 52.736C247.908 53.0587 247.196 53.22 246.404 53.22ZM246.734 51.35C247.394 51.35 247.966 51.196 248.45 50.888C248.949 50.58 249.338 50.162 249.616 49.634C249.895 49.0913 250.034 48.4753 250.034 47.786C250.034 47.0673 249.888 46.444 249.594 45.916C249.316 45.388 248.927 44.97 248.428 44.662C247.944 44.354 247.372 44.2 246.712 44.2C246.052 44.2 245.473 44.354 244.974 44.662C244.476 44.97 244.08 45.3953 243.786 45.938C243.508 46.466 243.368 47.0747 243.368 47.764C243.368 48.468 243.508 49.0913 243.786 49.634C244.08 50.162 244.476 50.58 244.974 50.888C245.488 51.196 246.074 51.35 246.734 51.35ZM251.904 53H249.902V50.184L250.276 47.632L249.902 45.102V37.292H251.904V53ZM258.373 53L253.577 42.55H255.777L259.627 51.372H258.351L262.223 42.55H264.335L259.539 53H258.373ZM270.389 53.22C269.362 53.22 268.438 52.978 267.617 52.494C266.796 52.01 266.143 51.3573 265.659 50.536C265.175 49.7 264.933 48.7687 264.933 47.742C264.933 46.73 265.175 45.8207 265.659 45.014C266.143 44.1927 266.796 43.54 267.617 43.056C268.438 42.572 269.362 42.33 270.389 42.33C271.401 42.33 272.318 42.572 273.139 43.056C273.975 43.5253 274.635 44.1707 275.119 44.992C275.603 45.8133 275.845 46.73 275.845 47.742C275.845 48.7687 275.603 49.7 275.119 50.536C274.635 51.3573 273.975 52.01 273.139 52.494C272.318 52.978 271.401 53.22 270.389 53.22ZM270.389 51.306C271.049 51.306 271.636 51.152 272.149 50.844C272.662 50.536 273.066 50.118 273.359 49.59C273.652 49.0473 273.799 48.4313 273.799 47.742C273.799 47.0673 273.645 46.466 273.337 45.938C273.044 45.41 272.64 44.9993 272.127 44.706C271.628 44.398 271.049 44.244 270.389 44.244C269.729 44.244 269.142 44.398 268.629 44.706C268.116 44.9993 267.712 45.41 267.419 45.938C267.126 46.466 266.979 47.0673 266.979 47.742C266.979 48.4313 267.126 49.0473 267.419 49.59C267.712 50.118 268.116 50.536 268.629 50.844C269.142 51.152 269.729 51.306 270.389 51.306ZM282.41 57.598C281.339 57.598 280.386 57.4 279.55 57.004C278.729 56.608 278.069 56.0507 277.57 55.332L278.846 54.034C279.271 54.5767 279.777 54.9873 280.364 55.266C280.951 55.5593 281.647 55.706 282.454 55.706C283.525 55.706 284.368 55.42 284.984 54.848C285.615 54.2907 285.93 53.5353 285.93 52.582V49.986L286.282 47.632L285.93 45.3V42.55H287.91V52.582C287.91 53.5793 287.675 54.452 287.206 55.2C286.751 55.948 286.106 56.5347 285.27 56.96C284.449 57.3853 283.495 57.598 282.41 57.598ZM282.41 52.824C281.457 52.824 280.599 52.5967 279.836 52.142C279.088 51.6873 278.494 51.064 278.054 50.272C277.614 49.4653 277.394 48.5633 277.394 47.566C277.394 46.5687 277.614 45.6813 278.054 44.904C278.494 44.112 279.088 43.4887 279.836 43.034C280.599 42.5647 281.457 42.33 282.41 42.33C283.231 42.33 283.957 42.4913 284.588 42.814C285.219 43.1367 285.717 43.5913 286.084 44.178C286.465 44.75 286.671 45.4247 286.7 46.202V48.974C286.656 49.7367 286.443 50.4113 286.062 50.998C285.695 51.57 285.197 52.0173 284.566 52.34C283.935 52.6627 283.217 52.824 282.41 52.824ZM282.806 50.954C283.451 50.954 284.016 50.8147 284.5 50.536C284.999 50.2573 285.38 49.8687 285.644 49.37C285.908 48.8567 286.04 48.2627 286.04 47.588C286.04 46.9133 285.901 46.3267 285.622 45.828C285.358 45.3147 284.984 44.9187 284.5 44.64C284.016 44.3467 283.444 44.2 282.784 44.2C282.124 44.2 281.545 44.3467 281.046 44.64C280.547 44.9187 280.151 45.3147 279.858 45.828C279.579 46.3267 279.44 46.906 279.44 47.566C279.44 48.226 279.579 48.8127 279.858 49.326C280.151 49.8393 280.547 50.2427 281.046 50.536C281.559 50.8147 282.146 50.954 282.806 50.954ZM295.26 53.22C294.307 53.22 293.442 52.9853 292.664 52.516C291.887 52.032 291.271 51.3793 290.816 50.558C290.376 49.7367 290.156 48.8127 290.156 47.786C290.156 46.7593 290.376 45.8353 290.816 45.014C291.271 44.1927 291.88 43.54 292.642 43.056C293.42 42.572 294.292 42.33 295.26 42.33C296.052 42.33 296.756 42.4987 297.372 42.836C298.003 43.1587 298.509 43.6133 298.89 44.2C299.272 44.772 299.484 45.4393 299.528 46.202V49.348C299.484 50.096 299.272 50.7633 298.89 51.35C298.524 51.9367 298.025 52.3987 297.394 52.736C296.778 53.0587 296.067 53.22 295.26 53.22ZM295.59 51.35C296.573 51.35 297.365 51.02 297.966 50.36C298.568 49.6853 298.868 48.8273 298.868 47.786C298.868 47.0673 298.729 46.444 298.45 45.916C298.186 45.3733 297.805 44.9553 297.306 44.662C296.808 44.354 296.228 44.2 295.568 44.2C294.908 44.2 294.322 44.354 293.808 44.662C293.31 44.97 292.914 45.3953 292.62 45.938C292.342 46.466 292.202 47.0747 292.202 47.764C292.202 48.468 292.342 49.0913 292.62 49.634C292.914 50.162 293.317 50.58 293.83 50.888C294.344 51.196 294.93 51.35 295.59 51.35ZM298.736 53V50.184L299.11 47.632L298.736 45.102V42.55H300.738V53H298.736ZM308.043 53.22C307.075 53.22 306.21 52.9853 305.447 52.516C304.684 52.032 304.076 51.3793 303.621 50.558C303.181 49.7367 302.961 48.8127 302.961 47.786C302.961 46.7593 303.181 45.8353 303.621 45.014C304.076 44.1927 304.684 43.54 305.447 43.056C306.21 42.572 307.075 42.33 308.043 42.33C308.82 42.33 309.524 42.4987 310.155 42.836C310.786 43.1587 311.292 43.6133 311.673 44.2C312.069 44.772 312.289 45.4393 312.333 46.202V49.348C312.289 50.096 312.076 50.7633 311.695 51.35C311.314 51.9367 310.808 52.3987 310.177 52.736C309.546 53.0587 308.835 53.22 308.043 53.22ZM308.373 51.35C309.033 51.35 309.605 51.196 310.089 50.888C310.588 50.58 310.976 50.162 311.255 49.634C311.534 49.0913 311.673 48.4753 311.673 47.786C311.673 47.0673 311.526 46.444 311.233 45.916C310.954 45.388 310.566 44.97 310.067 44.662C309.583 44.354 309.011 44.2 308.351 44.2C307.691 44.2 307.112 44.354 306.613 44.662C306.114 44.97 305.718 45.3953 305.425 45.938C305.146 46.466 305.007 47.0747 305.007 47.764C305.007 48.468 305.146 49.0913 305.425 49.634C305.718 50.162 306.114 50.58 306.613 50.888C307.126 51.196 307.713 51.35 308.373 51.35ZM313.543 53H311.541V50.184L311.915 47.632L311.541 45.102V37.292H313.543V53ZM321.2 53.22C320.173 53.22 319.249 52.978 318.428 52.494C317.606 52.01 316.954 51.3573 316.47 50.536C315.986 49.7 315.744 48.7687 315.744 47.742C315.744 46.73 315.986 45.8207 316.47 45.014C316.954 44.1927 317.606 43.54 318.428 43.056C319.249 42.572 320.173 42.33 321.2 42.33C322.212 42.33 323.128 42.572 323.95 43.056C324.786 43.5253 325.446 44.1707 325.93 44.992C326.414 45.8133 326.656 46.73 326.656 47.742C326.656 48.7687 326.414 49.7 325.93 50.536C325.446 51.3573 324.786 52.01 323.95 52.494C323.128 52.978 322.212 53.22 321.2 53.22ZM321.2 51.306C321.86 51.306 322.446 51.152 322.96 50.844C323.473 50.536 323.876 50.118 324.17 49.59C324.463 49.0473 324.61 48.4313 324.61 47.742C324.61 47.0673 324.456 46.466 324.148 45.938C323.854 45.41 323.451 44.9993 322.938 44.706C322.439 44.398 321.86 44.244 321.2 44.244C320.54 44.244 319.953 44.398 319.44 44.706C318.926 44.9993 318.523 45.41 318.23 45.938C317.936 46.466 317.79 47.0673 317.79 47.742C317.79 48.4313 317.936 49.0473 318.23 49.59C318.523 50.118 318.926 50.536 319.44 50.844C319.953 51.152 320.54 51.306 321.2 51.306ZM335.355 51.02C334.783 51.02 334.262 50.8807 333.793 50.602C333.338 50.3087 332.964 49.92 332.671 49.436C332.392 48.952 332.253 48.4093 332.253 47.808C332.253 47.2067 332.392 46.664 332.671 46.18C332.964 45.6813 333.338 45.2927 333.793 45.014C334.262 44.7207 334.783 44.574 335.355 44.574C336.059 44.574 336.631 44.75 337.071 45.102C337.525 45.4393 337.753 45.938 337.753 46.598V48.996C337.753 49.6413 337.533 50.14 337.093 50.492C336.653 50.844 336.073 51.02 335.355 51.02ZM335.443 49.634C335.971 49.634 336.389 49.4653 336.697 49.128C337.019 48.776 337.181 48.3287 337.181 47.786C337.181 47.2287 337.019 46.7813 336.697 46.444C336.389 46.1067 335.971 45.938 335.443 45.938C334.959 45.938 334.548 46.114 334.211 46.466C333.888 46.8033 333.727 47.2433 333.727 47.786C333.727 48.3287 333.888 48.776 334.211 49.128C334.533 49.4653 334.944 49.634 335.443 49.634ZM337.291 50.866V49.238L337.511 47.698L337.291 46.224V44.706H338.721V50.866H337.291ZM339.425 52.164L340.525 53.286C339.879 53.8433 339.153 54.2613 338.347 54.54C337.54 54.8333 336.675 54.98 335.751 54.98C334.753 54.98 333.815 54.7967 332.935 54.43C332.069 54.078 331.314 53.5793 330.669 52.934C330.023 52.2887 329.517 51.5333 329.151 50.668C328.784 49.788 328.601 48.8347 328.601 47.808C328.601 46.7813 328.784 45.8353 329.151 44.97C329.532 44.09 330.053 43.3273 330.713 42.682C331.373 42.022 332.143 41.5087 333.023 41.142C333.917 40.7753 334.871 40.592 335.883 40.592C337.232 40.592 338.42 40.9 339.447 41.516C340.488 42.132 341.302 42.9753 341.889 44.046C342.49 45.1167 342.791 46.3487 342.791 47.742C342.791 48.3727 342.725 48.9447 342.593 49.458C342.475 49.9567 342.277 50.426 341.999 50.866L340.305 50.778C340.51 50.4847 340.671 50.1913 340.789 49.898C340.921 49.59 341.016 49.2527 341.075 48.886C341.133 48.5193 341.163 48.1013 341.163 47.632C341.163 46.4733 340.95 45.4907 340.525 44.684C340.114 43.8627 339.513 43.2393 338.721 42.814C337.943 42.374 337.005 42.154 335.905 42.154C334.79 42.154 333.807 42.3887 332.957 42.858C332.121 43.3273 331.468 43.9873 330.999 44.838C330.544 45.674 330.317 46.6713 330.317 47.83C330.317 48.974 330.537 49.964 330.977 50.8C331.431 51.636 332.069 52.2887 332.891 52.758C333.712 53.2127 334.651 53.44 335.707 53.44C336.484 53.44 337.181 53.33 337.797 53.11C338.413 52.9047 338.955 52.5893 339.425 52.164ZM337.907 49.568H341.999V50.866H337.907V49.568ZM349.721 57.598C348.65 57.598 347.697 57.4 346.861 57.004C346.039 56.608 345.379 56.0507 344.881 55.332L346.157 54.034C346.582 54.5767 347.088 54.9873 347.675 55.266C348.261 55.5593 348.958 55.706 349.765 55.706C350.835 55.706 351.679 55.42 352.295 54.848C352.925 54.2907 353.241 53.5353 353.241 52.582V49.986L353.593 47.632L353.241 45.3V42.55H355.221V52.582C355.221 53.5793 354.986 54.452 354.517 55.2C354.062 55.948 353.417 56.5347 352.581 56.96C351.759 57.3853 350.806 57.598 349.721 57.598ZM349.721 52.824C348.767 52.824 347.909 52.5967 347.147 52.142C346.399 51.6873 345.805 51.064 345.365 50.272C344.925 49.4653 344.705 48.5633 344.705 47.566C344.705 46.5687 344.925 45.6813 345.365 44.904C345.805 44.112 346.399 43.4887 347.147 43.034C347.909 42.5647 348.767 42.33 349.721 42.33C350.542 42.33 351.268 42.4913 351.899 42.814C352.529 43.1367 353.028 43.5913 353.395 44.178C353.776 44.75 353.981 45.4247 354.011 46.202V48.974C353.967 49.7367 353.754 50.4113 353.373 50.998C353.006 51.57 352.507 52.0173 351.877 52.34C351.246 52.6627 350.527 52.824 349.721 52.824ZM350.117 50.954C350.762 50.954 351.327 50.8147 351.811 50.536C352.309 50.2573 352.691 49.8687 352.955 49.37C353.219 48.8567 353.351 48.2627 353.351 47.588C353.351 46.9133 353.211 46.3267 352.933 45.828C352.669 45.3147 352.295 44.9187 351.811 44.64C351.327 44.3467 350.755 44.2 350.095 44.2C349.435 44.2 348.855 44.3467 348.357 44.64C347.858 44.9187 347.462 45.3147 347.169 45.828C346.89 46.3267 346.751 46.906 346.751 47.566C346.751 48.226 346.89 48.8127 347.169 49.326C347.462 49.8393 347.858 50.2427 348.357 50.536C348.87 50.8147 349.457 50.954 350.117 50.954ZM358.127 53V42.55H360.107V53H358.127ZM365.189 53V46.686C365.189 45.9087 364.947 45.3 364.463 44.86C363.993 44.4053 363.399 44.178 362.681 44.178C362.197 44.178 361.764 44.2807 361.383 44.486C361.001 44.6913 360.693 44.9773 360.459 45.344C360.224 45.7107 360.107 46.1507 360.107 46.664L359.293 46.268C359.293 45.476 359.461 44.7867 359.799 44.2C360.151 43.6133 360.627 43.1587 361.229 42.836C361.83 42.4987 362.505 42.33 363.253 42.33C363.986 42.33 364.646 42.4913 365.233 42.814C365.834 43.1367 366.303 43.5913 366.641 44.178C366.993 44.7647 367.169 45.4613 367.169 46.268V53H365.189ZM372.251 53V46.686C372.251 45.9087 372.009 45.3 371.525 44.86C371.055 44.4053 370.469 44.178 369.765 44.178C369.281 44.178 368.841 44.2807 368.445 44.486C368.063 44.6913 367.755 44.9773 367.521 45.344C367.286 45.7107 367.169 46.1507 367.169 46.664L366.047 46.268C366.091 45.4613 366.303 44.772 366.685 44.2C367.081 43.6133 367.587 43.1587 368.203 42.836C368.819 42.4987 369.493 42.33 370.227 42.33C370.989 42.33 371.671 42.4913 372.273 42.814C372.874 43.1367 373.351 43.5913 373.703 44.178C374.069 44.7647 374.253 45.4687 374.253 46.29V53H372.251ZM381.391 53.22C380.438 53.22 379.572 52.9853 378.795 52.516C378.018 52.032 377.402 51.3793 376.947 50.558C376.507 49.7367 376.287 48.8127 376.287 47.786C376.287 46.7593 376.507 45.8353 376.947 45.014C377.402 44.1927 378.01 43.54 378.773 43.056C379.55 42.572 380.423 42.33 381.391 42.33C382.183 42.33 382.887 42.4987 383.503 42.836C384.134 43.1587 384.64 43.6133 385.021 44.2C385.402 44.772 385.615 45.4393 385.659 46.202V49.348C385.615 50.096 385.402 50.7633 385.021 51.35C384.654 51.9367 384.156 52.3987 383.525 52.736C382.909 53.0587 382.198 53.22 381.391 53.22ZM381.721 51.35C382.704 51.35 383.496 51.02 384.097 50.36C384.698 49.6853 384.999 48.8273 384.999 47.786C384.999 47.0673 384.86 46.444 384.581 45.916C384.317 45.3733 383.936 44.9553 383.437 44.662C382.938 44.354 382.359 44.2 381.699 44.2C381.039 44.2 380.452 44.354 379.939 44.662C379.44 44.97 379.044 45.3953 378.751 45.938C378.472 46.466 378.333 47.0747 378.333 47.764C378.333 48.468 378.472 49.0913 378.751 49.634C379.044 50.162 379.448 50.58 379.961 50.888C380.474 51.196 381.061 51.35 381.721 51.35ZM384.867 53V50.184L385.241 47.632L384.867 45.102V42.55H386.869V53H384.867ZM389.774 53V42.55H391.754V53H389.774ZM390.764 40.46C390.397 40.46 390.096 40.3427 389.862 40.108C389.627 39.8587 389.51 39.5507 389.51 39.184C389.51 38.832 389.627 38.5387 389.862 38.304C390.096 38.0547 390.397 37.93 390.764 37.93C391.13 37.93 391.431 38.0547 391.666 38.304C391.9 38.5387 392.018 38.832 392.018 39.184C392.018 39.5507 391.9 39.8587 391.666 40.108C391.431 40.3427 391.13 40.46 390.764 40.46ZM394.672 53V37.292H396.652V53H394.672ZM401.287 53.22C400.876 53.22 400.531 53.0807 400.253 52.802C399.989 52.5087 399.857 52.164 399.857 51.768C399.857 51.3573 399.989 51.02 400.253 50.756C400.531 50.4773 400.876 50.338 401.287 50.338C401.697 50.338 402.035 50.4773 402.299 50.756C402.577 51.02 402.717 51.3573 402.717 51.768C402.717 52.164 402.577 52.5087 402.299 52.802C402.035 53.0807 401.697 53.22 401.287 53.22ZM410.274 53.22C409.247 53.22 408.316 52.978 407.48 52.494C406.659 52.01 406.006 51.3573 405.522 50.536C405.053 49.7 404.818 48.776 404.818 47.764C404.818 46.7373 405.053 45.8133 405.522 44.992C406.006 44.1707 406.659 43.5253 407.48 43.056C408.316 42.572 409.247 42.33 410.274 42.33C411.081 42.33 411.829 42.484 412.518 42.792C413.207 43.0853 413.801 43.518 414.3 44.09L412.98 45.41C412.657 45.0287 412.261 44.7427 411.792 44.552C411.337 44.3467 410.831 44.244 410.274 44.244C409.614 44.244 409.027 44.398 408.514 44.706C408.001 44.9993 407.597 45.41 407.304 45.938C407.011 46.466 406.864 47.0747 406.864 47.764C406.864 48.4533 407.011 49.062 407.304 49.59C407.597 50.118 408.001 50.536 408.514 50.844C409.027 51.152 409.614 51.306 410.274 51.306C410.831 51.306 411.337 51.2107 411.792 51.02C412.261 50.8147 412.665 50.5213 413.002 50.14L414.3 51.46C413.816 52.0173 413.222 52.45 412.518 52.758C411.829 53.066 411.081 53.22 410.274 53.22ZM420.823 53.22C419.796 53.22 418.872 52.978 418.051 52.494C417.229 52.01 416.577 51.3573 416.093 50.536C415.609 49.7 415.367 48.7687 415.367 47.742C415.367 46.73 415.609 45.8207 416.093 45.014C416.577 44.1927 417.229 43.54 418.051 43.056C418.872 42.572 419.796 42.33 420.823 42.33C421.835 42.33 422.751 42.572 423.573 43.056C424.409 43.5253 425.069 44.1707 425.553 44.992C426.037 45.8133 426.279 46.73 426.279 47.742C426.279 48.7687 426.037 49.7 425.553 50.536C425.069 51.3573 424.409 52.01 423.573 52.494C422.751 52.978 421.835 53.22 420.823 53.22ZM420.823 51.306C421.483 51.306 422.069 51.152 422.583 50.844C423.096 50.536 423.499 50.118 423.793 49.59C424.086 49.0473 424.233 48.4313 424.233 47.742C424.233 47.0673 424.079 46.466 423.771 45.938C423.477 45.41 423.074 44.9993 422.561 44.706C422.062 44.398 421.483 44.244 420.823 44.244C420.163 44.244 419.576 44.398 419.063 44.706C418.549 44.9993 418.146 45.41 417.853 45.938C417.559 46.466 417.413 47.0673 417.413 47.742C417.413 48.4313 417.559 49.0473 417.853 49.59C418.146 50.118 418.549 50.536 419.063 50.844C419.576 51.152 420.163 51.306 420.823 51.306ZM428.51 53V42.55H430.49V53H428.51ZM435.572 53V46.686C435.572 45.9087 435.33 45.3 434.846 44.86C434.376 44.4053 433.782 44.178 433.064 44.178C432.58 44.178 432.147 44.2807 431.766 44.486C431.384 44.6913 431.076 44.9773 430.842 45.344C430.607 45.7107 430.49 46.1507 430.49 46.664L429.676 46.268C429.676 45.476 429.844 44.7867 430.182 44.2C430.534 43.6133 431.01 43.1587 431.612 42.836C432.213 42.4987 432.888 42.33 433.636 42.33C434.369 42.33 435.029 42.4913 435.616 42.814C436.217 43.1367 436.686 43.5913 437.024 44.178C437.376 44.7647 437.552 45.4613 437.552 46.268V53H435.572ZM442.634 53V46.686C442.634 45.9087 442.392 45.3 441.908 44.86C441.438 44.4053 440.852 44.178 440.148 44.178C439.664 44.178 439.224 44.2807 438.828 44.486C438.446 44.6913 438.138 44.9773 437.904 45.344C437.669 45.7107 437.552 46.1507 437.552 46.664L436.43 46.268C436.474 45.4613 436.686 44.772 437.068 44.2C437.464 43.6133 437.97 43.1587 438.586 42.836C439.202 42.4987 439.876 42.33 440.61 42.33C441.372 42.33 442.054 42.4913 442.656 42.814C443.257 43.1367 443.734 43.5913 444.086 44.178C444.452 44.7647 444.636 45.4687 444.636 46.29V53H442.634Z" fill="white"/>
<path d="M75.5877 24V11.4H77.6577V24H75.5877ZM77.0097 24V22.11H84.0657V24H77.0097ZM77.0097 18.474V16.656H83.4537V18.474H77.0097ZM77.0097 13.29V11.4H83.9757V13.29H77.0097ZM85.9349 24V15.36H87.9149V24H85.9349ZM91.6769 24V18.852C91.6769 18.276 91.4969 17.832 91.1369 17.52C90.7769 17.196 90.3329 17.034 89.8049 17.034C89.4449 17.034 89.1209 17.106 88.8329 17.25C88.5569 17.394 88.3349 17.604 88.1669 17.88C87.9989 18.144 87.9149 18.468 87.9149 18.852L87.1409 18.42C87.1409 17.76 87.2849 17.19 87.5729 16.71C87.8609 16.23 88.2509 15.858 88.7429 15.594C89.2349 15.318 89.7869 15.18 90.3989 15.18C91.0109 15.18 91.5629 15.312 92.0549 15.576C92.5469 15.84 92.9369 16.212 93.2249 16.692C93.5129 17.172 93.6569 17.748 93.6569 18.42V24H91.6769ZM97.4189 24V18.852C97.4189 18.276 97.2389 17.832 96.8789 17.52C96.5189 17.196 96.0749 17.034 95.5469 17.034C95.1989 17.034 94.8809 17.106 94.5929 17.25C94.3049 17.394 94.0769 17.604 93.9089 17.88C93.7409 18.144 93.6569 18.468 93.6569 18.852L92.5409 18.42C92.6009 17.76 92.7929 17.19 93.1169 16.71C93.4409 16.23 93.8549 15.858 94.3589 15.594C94.8749 15.318 95.4389 15.18 96.0509 15.18C96.6749 15.18 97.2389 15.312 97.7429 15.576C98.2469 15.84 98.6489 16.212 98.9489 16.692C99.2489 17.172 99.3989 17.748 99.3989 18.42V24H97.4189ZM105.057 24.18C104.277 24.18 103.569 23.982 102.933 23.586C102.309 23.19 101.811 22.656 101.439 21.984C101.079 21.3 100.899 20.538 100.899 19.698C100.899 18.846 101.079 18.084 101.439 17.412C101.811 16.728 102.309 16.188 102.933 15.792C103.569 15.384 104.277 15.18 105.057 15.18C105.717 15.18 106.299 15.324 106.803 15.612C107.319 15.888 107.727 16.272 108.027 16.764C108.327 17.256 108.477 17.814 108.477 18.438V20.922C108.477 21.546 108.327 22.104 108.027 22.596C107.739 23.088 107.337 23.478 106.821 23.766C106.305 24.042 105.717 24.18 105.057 24.18ZM105.381 22.308C106.113 22.308 106.701 22.062 107.145 21.57C107.601 21.078 107.829 20.448 107.829 19.68C107.829 19.164 107.727 18.708 107.523 18.312C107.319 17.916 107.031 17.61 106.659 17.394C106.299 17.166 105.873 17.052 105.381 17.052C104.901 17.052 104.475 17.166 104.103 17.394C103.743 17.61 103.455 17.916 103.239 18.312C103.035 18.708 102.933 19.164 102.933 19.68C102.933 20.196 103.035 20.652 103.239 21.048C103.455 21.444 103.743 21.756 104.103 21.984C104.475 22.2 104.901 22.308 105.381 22.308ZM107.703 24V21.678L108.045 19.572L107.703 17.484V15.36H109.683V24H107.703ZM111.898 24V15.36H113.878V24H111.898ZM112.888 13.776C112.552 13.776 112.27 13.662 112.042 13.434C111.826 13.206 111.718 12.924 111.718 12.588C111.718 12.252 111.826 11.97 112.042 11.742C112.27 11.514 112.552 11.4 112.888 11.4C113.236 11.4 113.518 11.514 113.734 11.742C113.95 11.97 114.058 12.252 114.058 12.588C114.058 12.924 113.95 13.206 113.734 13.434C113.518 13.662 113.236 13.776 112.888 13.776ZM116.099 24V11.04H118.079V24H116.099ZM121.615 24.18C121.231 24.18 120.913 24.054 120.661 23.802C120.421 23.538 120.301 23.22 120.301 22.848C120.301 22.464 120.421 22.146 120.661 21.894C120.913 21.642 121.231 21.516 121.615 21.516C121.999 21.516 122.311 21.642 122.551 21.894C122.803 22.146 122.929 22.464 122.929 22.848C122.929 23.22 122.803 23.538 122.551 23.802C122.311 24.054 121.999 24.18 121.615 24.18ZM121.615 18.618C121.231 18.618 120.913 18.492 120.661 18.24C120.421 17.976 120.301 17.658 120.301 17.286C120.301 16.902 120.421 16.584 120.661 16.332C120.913 16.08 121.231 15.954 121.615 15.954C121.999 15.954 122.311 16.08 122.551 16.332C122.803 16.584 122.929 16.902 122.929 17.286C122.929 17.658 122.803 17.976 122.551 18.24C122.311 18.492 121.999 18.618 121.615 18.618Z" fill="#CCAA60"/>
<path d="M39.5769 24.7998H22.8626C22.6921 24.7998 22.5286 24.8688 22.408 24.9915C22.2875 25.1143 22.2197 25.2808 22.2197 25.4544V38.5453C22.2197 38.7189 22.2875 38.8853 22.408 39.0081C22.5286 39.1308 22.6921 39.1998 22.8626 39.1998H39.5769C39.7474 39.1998 39.9109 39.1308 40.0314 39.0081C40.152 38.8853 40.2197 38.7189 40.2197 38.5453V25.4544C40.2197 25.2808 40.152 25.1143 40.0314 24.9915C39.9109 24.8688 39.7474 24.7998 39.5769 24.7998ZM31.6143 33.171C31.5015 33.2603 31.3626 33.3088 31.2197 33.3088C31.0768 33.3088 30.938 33.2603 30.8252 33.171L24.532 28.1875L25.3211 27.1541L31.2197 31.8251L37.1183 27.1541L37.9074 28.1875L31.6143 33.171Z" fill="#CCAA60"/>
</svg>
