<svg width="347" height="62" viewBox="0 0 347 62" fill="none" xmlns="http://www.w3.org/2000/svg">
<circle cx="31.2197" cy="31" r="30" stroke="#CCAA60" stroke-width="2"/>
<path d="M80.1157 53.22C79.1624 53.22 78.2971 52.9853 77.5197 52.516C76.7424 52.032 76.1264 51.3793 75.6717 50.558C75.2317 49.7367 75.0117 48.8127 75.0117 47.786C75.0117 46.7593 75.2317 45.8353 75.6717 45.014C76.1264 44.1927 76.7351 43.54 77.4977 43.056C78.2751 42.572 79.1477 42.33 80.1157 42.33C80.9077 42.33 81.6117 42.4987 82.2277 42.836C82.8584 43.1587 83.3644 43.6133 83.7457 44.2C84.1271 44.772 84.3397 45.4393 84.3837 46.202V49.348C84.3397 50.096 84.1271 50.7633 83.7457 51.35C83.3791 51.9367 82.8804 52.3987 82.2497 52.736C81.6337 53.0587 80.9224 53.22 80.1157 53.22ZM80.4457 51.35C81.4284 51.35 82.2204 51.02 82.8217 50.36C83.4231 49.6853 83.7237 48.8273 83.7237 47.786C83.7237 47.0673 83.5844 46.444 83.3057 45.916C83.0417 45.3733 82.6604 44.9553 82.1617 44.662C81.6631 44.354 81.0837 44.2 80.4237 44.2C79.7637 44.2 79.1771 44.354 78.6637 44.662C78.1651 44.97 77.7691 45.3953 77.4757 45.938C77.1971 46.466 77.0577 47.0747 77.0577 47.764C77.0577 48.468 77.1971 49.0913 77.4757 49.634C77.7691 50.162 78.1724 50.58 78.6857 50.888C79.1991 51.196 79.7857 51.35 80.4457 51.35ZM83.5917 53V50.184L83.9657 47.632L83.5917 45.102V42.55H85.5937V53H83.5917ZM88.4764 53V37.292H90.4564V53H88.4764ZM98.1934 53.22C97.152 53.22 96.2134 52.9853 95.3774 52.516C94.5414 52.032 93.8814 51.3793 93.3974 50.558C92.9134 49.7367 92.6714 48.8053 92.6714 47.764C92.6714 46.7373 92.906 45.8133 93.3754 44.992C93.8594 44.1707 94.5047 43.5253 95.3114 43.056C96.1327 42.572 97.0494 42.33 98.0614 42.33C99.0294 42.33 99.88 42.55 100.613 42.99C101.361 43.43 101.941 44.0387 102.351 44.816C102.777 45.5933 102.989 46.4733 102.989 47.456C102.989 47.6027 102.982 47.764 102.967 47.94C102.953 48.1013 102.923 48.292 102.879 48.512H94.0574V46.862H101.823L101.097 47.5C101.097 46.796 100.973 46.202 100.723 45.718C100.474 45.2193 100.122 44.838 99.6674 44.574C99.2127 44.2953 98.6627 44.156 98.0174 44.156C97.3427 44.156 96.7487 44.3027 96.2354 44.596C95.722 44.8893 95.326 45.3 95.0474 45.828C94.7687 46.356 94.6294 46.9793 94.6294 47.698C94.6294 48.4313 94.776 49.0767 95.0694 49.634C95.3627 50.1767 95.7807 50.602 96.3234 50.91C96.866 51.2033 97.4894 51.35 98.1934 51.35C98.78 51.35 99.3154 51.2473 99.7994 51.042C100.298 50.8367 100.723 50.5287 101.075 50.118L102.351 51.416C101.853 52.0027 101.237 52.45 100.503 52.758C99.7847 53.066 99.0147 53.22 98.1934 53.22ZM111.69 53L108.434 48.424L108.06 48.072L103.946 42.55H106.344L109.314 46.62L109.688 46.928L114.088 53H111.69ZM103.748 53L108.06 47.192L109.182 48.644L106.08 53H103.748ZM109.842 48.05L108.698 46.642L111.58 42.55H113.89L109.842 48.05ZM120.034 53.22C119.08 53.22 118.215 52.9853 117.438 52.516C116.66 52.032 116.044 51.3793 115.59 50.558C115.15 49.7367 114.93 48.8127 114.93 47.786C114.93 46.7593 115.15 45.8353 115.59 45.014C116.044 44.1927 116.653 43.54 117.416 43.056C118.193 42.572 119.066 42.33 120.034 42.33C120.826 42.33 121.53 42.4987 122.146 42.836C122.776 43.1587 123.282 43.6133 123.664 44.2C124.045 44.772 124.258 45.4393 124.302 46.202V49.348C124.258 50.096 124.045 50.7633 123.664 51.35C123.297 51.9367 122.798 52.3987 122.168 52.736C121.552 53.0587 120.84 53.22 120.034 53.22ZM120.364 51.35C121.346 51.35 122.138 51.02 122.74 50.36C123.341 49.6853 123.642 48.8273 123.642 47.786C123.642 47.0673 123.502 46.444 123.224 45.916C122.96 45.3733 122.578 44.9553 122.08 44.662C121.581 44.354 121.002 44.2 120.342 44.2C119.682 44.2 119.095 44.354 118.582 44.662C118.083 44.97 117.687 45.3953 117.394 45.938C117.115 46.466 116.976 47.0747 116.976 47.764C116.976 48.468 117.115 49.0913 117.394 49.634C117.687 50.162 118.09 50.58 118.604 50.888C119.117 51.196 119.704 51.35 120.364 51.35ZM123.51 53V50.184L123.884 47.632L123.51 45.102V42.55H125.512V53H123.51ZM135.786 53V46.906C135.786 46.114 135.537 45.4613 135.038 44.948C134.54 44.4347 133.894 44.178 133.102 44.178C132.574 44.178 132.105 44.2953 131.694 44.53C131.284 44.7647 130.961 45.0873 130.726 45.498C130.492 45.9087 130.374 46.378 130.374 46.906L129.56 46.444C129.56 45.652 129.736 44.948 130.088 44.332C130.44 43.716 130.932 43.232 131.562 42.88C132.193 42.5133 132.904 42.33 133.696 42.33C134.488 42.33 135.185 42.528 135.786 42.924C136.402 43.32 136.886 43.8407 137.238 44.486C137.59 45.1167 137.766 45.7913 137.766 46.51V53H135.786ZM128.394 53V42.55H130.374V53H128.394ZM144.869 53.22C143.901 53.22 143.036 52.9853 142.273 52.516C141.51 52.032 140.902 51.3793 140.447 50.558C140.007 49.7367 139.787 48.8127 139.787 47.786C139.787 46.7593 140.007 45.8353 140.447 45.014C140.902 44.1927 141.51 43.54 142.273 43.056C143.036 42.572 143.901 42.33 144.869 42.33C145.646 42.33 146.35 42.4987 146.981 42.836C147.612 43.1587 148.118 43.6133 148.499 44.2C148.895 44.772 149.115 45.4393 149.159 46.202V49.348C149.115 50.096 148.902 50.7633 148.521 51.35C148.14 51.9367 147.634 52.3987 147.003 52.736C146.372 53.0587 145.661 53.22 144.869 53.22ZM145.199 51.35C145.859 51.35 146.431 51.196 146.915 50.888C147.414 50.58 147.802 50.162 148.081 49.634C148.36 49.0913 148.499 48.4753 148.499 47.786C148.499 47.0673 148.352 46.444 148.059 45.916C147.78 45.388 147.392 44.97 146.893 44.662C146.409 44.354 145.837 44.2 145.177 44.2C144.517 44.2 143.938 44.354 143.439 44.662C142.94 44.97 142.544 45.3953 142.251 45.938C141.972 46.466 141.833 47.0747 141.833 47.764C141.833 48.468 141.972 49.0913 142.251 49.634C142.544 50.162 142.94 50.58 143.439 50.888C143.952 51.196 144.539 51.35 145.199 51.35ZM150.369 53H148.367V50.184L148.741 47.632L148.367 45.102V37.292H150.369V53ZM153.252 53V42.55H155.232V53H153.252ZM155.232 47.038L154.484 46.708C154.484 45.3733 154.792 44.31 155.408 43.518C156.024 42.726 156.911 42.33 158.07 42.33C158.598 42.33 159.074 42.4253 159.5 42.616C159.925 42.792 160.321 43.0927 160.688 43.518L159.39 44.86C159.17 44.6253 158.928 44.4567 158.664 44.354C158.4 44.2513 158.092 44.2 157.74 44.2C157.006 44.2 156.405 44.4347 155.936 44.904C155.466 45.3733 155.232 46.0847 155.232 47.038ZM166.578 53.22C165.537 53.22 164.598 52.9853 163.762 52.516C162.926 52.032 162.266 51.3793 161.782 50.558C161.298 49.7367 161.056 48.8053 161.056 47.764C161.056 46.7373 161.291 45.8133 161.76 44.992C162.244 44.1707 162.889 43.5253 163.696 43.056C164.517 42.572 165.434 42.33 166.446 42.33C167.414 42.33 168.265 42.55 168.998 42.99C169.746 43.43 170.325 44.0387 170.736 44.816C171.161 45.5933 171.374 46.4733 171.374 47.456C171.374 47.6027 171.367 47.764 171.352 47.94C171.337 48.1013 171.308 48.292 171.264 48.512H162.442V46.862H170.208L169.482 47.5C169.482 46.796 169.357 46.202 169.108 45.718C168.859 45.2193 168.507 44.838 168.052 44.574C167.597 44.2953 167.047 44.156 166.402 44.156C165.727 44.156 165.133 44.3027 164.62 44.596C164.107 44.8893 163.711 45.3 163.432 45.828C163.153 46.356 163.014 46.9793 163.014 47.698C163.014 48.4313 163.161 49.0767 163.454 49.634C163.747 50.1767 164.165 50.602 164.708 50.91C165.251 51.2033 165.874 51.35 166.578 51.35C167.165 51.35 167.7 51.2473 168.184 51.042C168.683 50.8367 169.108 50.5287 169.46 50.118L170.736 51.416C170.237 52.0027 169.621 52.45 168.888 52.758C168.169 53.066 167.399 53.22 166.578 53.22ZM176.855 53.22C176.268 53.22 175.711 53.1467 175.183 53C174.67 52.8387 174.193 52.6187 173.753 52.34C173.313 52.0467 172.932 51.702 172.609 51.306L173.885 50.03C174.266 50.4993 174.706 50.8513 175.205 51.086C175.704 51.306 176.261 51.416 176.877 51.416C177.493 51.416 177.97 51.3133 178.307 51.108C178.644 50.888 178.813 50.5873 178.813 50.206C178.813 49.8247 178.674 49.5313 178.395 49.326C178.131 49.106 177.786 48.93 177.361 48.798C176.936 48.6513 176.481 48.512 175.997 48.38C175.528 48.2333 175.08 48.05 174.655 47.83C174.23 47.61 173.878 47.3093 173.599 46.928C173.335 46.5467 173.203 46.0407 173.203 45.41C173.203 44.7793 173.357 44.2367 173.665 43.782C173.973 43.3127 174.398 42.9533 174.941 42.704C175.498 42.4547 176.166 42.33 176.943 42.33C177.764 42.33 178.49 42.4767 179.121 42.77C179.766 43.0487 180.294 43.474 180.705 44.046L179.429 45.322C179.136 44.9407 178.769 44.6473 178.329 44.442C177.904 44.2367 177.42 44.134 176.877 44.134C176.305 44.134 175.865 44.2367 175.557 44.442C175.264 44.6327 175.117 44.904 175.117 45.256C175.117 45.608 175.249 45.8793 175.513 46.07C175.777 46.2607 176.122 46.422 176.547 46.554C176.987 46.686 177.442 46.8253 177.911 46.972C178.38 47.104 178.828 47.2873 179.253 47.522C179.678 47.7567 180.023 48.072 180.287 48.468C180.566 48.864 180.705 49.3847 180.705 50.03C180.705 51.0127 180.353 51.79 179.649 52.362C178.96 52.934 178.028 53.22 176.855 53.22ZM187.696 53.22C186.669 53.22 185.745 52.978 184.924 52.494C184.102 52.01 183.45 51.3573 182.966 50.536C182.482 49.7 182.24 48.7687 182.24 47.742C182.24 46.73 182.482 45.8207 182.966 45.014C183.45 44.1927 184.102 43.54 184.924 43.056C185.745 42.572 186.669 42.33 187.696 42.33C188.708 42.33 189.624 42.572 190.446 43.056C191.282 43.5253 191.942 44.1707 192.426 44.992C192.91 45.8133 193.152 46.73 193.152 47.742C193.152 48.7687 192.91 49.7 192.426 50.536C191.942 51.3573 191.282 52.01 190.446 52.494C189.624 52.978 188.708 53.22 187.696 53.22ZM187.696 51.306C188.356 51.306 188.942 51.152 189.456 50.844C189.969 50.536 190.372 50.118 190.666 49.59C190.959 49.0473 191.106 48.4313 191.106 47.742C191.106 47.0673 190.952 46.466 190.644 45.938C190.35 45.41 189.947 44.9993 189.434 44.706C188.935 44.398 188.356 44.244 187.696 44.244C187.036 44.244 186.449 44.398 185.936 44.706C185.422 44.9993 185.019 45.41 184.726 45.938C184.432 46.466 184.286 47.0673 184.286 47.742C184.286 48.4313 184.432 49.0473 184.726 49.59C185.019 50.118 185.422 50.536 185.936 50.844C186.449 51.152 187.036 51.306 187.696 51.306ZM199.585 53.22C198.734 53.22 197.964 53.0293 197.275 52.648C196.6 52.252 196.072 51.7093 195.691 51.02C195.309 50.3307 195.119 49.5313 195.119 48.622V42.55H197.099V48.534C197.099 49.106 197.194 49.6047 197.385 50.03C197.59 50.4407 197.883 50.756 198.265 50.976C198.646 51.196 199.093 51.306 199.607 51.306C200.384 51.306 200.993 51.064 201.433 50.58C201.873 50.0813 202.093 49.3993 202.093 48.534V42.55H204.073V48.622C204.073 49.5313 203.882 50.3307 203.501 51.02C203.119 51.7093 202.591 52.252 201.917 52.648C201.257 53.0293 200.479 53.22 199.585 53.22ZM205.89 51.922L212.094 43.628H214.426L208.222 51.922H205.89ZM205.89 53V51.922L207.65 51.196H214.294V53H205.89ZM206.264 44.354V42.55H214.426V43.628L212.6 44.354H206.264ZM220.817 53.22C219.864 53.22 218.998 52.9853 218.221 52.516C217.444 52.032 216.828 51.3793 216.373 50.558C215.933 49.7367 215.713 48.8127 215.713 47.786C215.713 46.7593 215.933 45.8353 216.373 45.014C216.828 44.1927 217.436 43.54 218.199 43.056C218.976 42.572 219.849 42.33 220.817 42.33C221.609 42.33 222.313 42.4987 222.929 42.836C223.56 43.1587 224.066 43.6133 224.447 44.2C224.828 44.772 225.041 45.4393 225.085 46.202V49.348C225.041 50.096 224.828 50.7633 224.447 51.35C224.08 51.9367 223.582 52.3987 222.951 52.736C222.335 53.0587 221.624 53.22 220.817 53.22ZM221.147 51.35C222.13 51.35 222.922 51.02 223.523 50.36C224.124 49.6853 224.425 48.8273 224.425 47.786C224.425 47.0673 224.286 46.444 224.007 45.916C223.743 45.3733 223.362 44.9553 222.863 44.662C222.364 44.354 221.785 44.2 221.125 44.2C220.465 44.2 219.878 44.354 219.365 44.662C218.866 44.97 218.47 45.3953 218.177 45.938C217.898 46.466 217.759 47.0747 217.759 47.764C217.759 48.468 217.898 49.0913 218.177 49.634C218.47 50.162 218.874 50.58 219.387 50.888C219.9 51.196 220.487 51.35 221.147 51.35ZM224.293 53V50.184L224.667 47.632L224.293 45.102V42.55H226.295V53H224.293ZM235.646 51.02C235.074 51.02 234.553 50.8807 234.084 50.602C233.629 50.3087 233.255 49.92 232.962 49.436C232.683 48.952 232.544 48.4093 232.544 47.808C232.544 47.2067 232.683 46.664 232.962 46.18C233.255 45.6813 233.629 45.2927 234.084 45.014C234.553 44.7207 235.074 44.574 235.646 44.574C236.35 44.574 236.922 44.75 237.362 45.102C237.816 45.4393 238.044 45.938 238.044 46.598V48.996C238.044 49.6413 237.824 50.14 237.384 50.492C236.944 50.844 236.364 51.02 235.646 51.02ZM235.734 49.634C236.262 49.634 236.68 49.4653 236.988 49.128C237.31 48.776 237.472 48.3287 237.472 47.786C237.472 47.2287 237.31 46.7813 236.988 46.444C236.68 46.1067 236.262 45.938 235.734 45.938C235.25 45.938 234.839 46.114 234.502 46.466C234.179 46.8033 234.018 47.2433 234.018 47.786C234.018 48.3287 234.179 48.776 234.502 49.128C234.824 49.4653 235.235 49.634 235.734 49.634ZM237.582 50.866V49.238L237.802 47.698L237.582 46.224V44.706H239.012V50.866H237.582ZM239.716 52.164L240.816 53.286C240.17 53.8433 239.444 54.2613 238.638 54.54C237.831 54.8333 236.966 54.98 236.042 54.98C235.044 54.98 234.106 54.7967 233.226 54.43C232.36 54.078 231.605 53.5793 230.96 52.934C230.314 52.2887 229.808 51.5333 229.442 50.668C229.075 49.788 228.892 48.8347 228.892 47.808C228.892 46.7813 229.075 45.8353 229.442 44.97C229.823 44.09 230.344 43.3273 231.004 42.682C231.664 42.022 232.434 41.5087 233.314 41.142C234.208 40.7753 235.162 40.592 236.174 40.592C237.523 40.592 238.711 40.9 239.738 41.516C240.779 42.132 241.593 42.9753 242.18 44.046C242.781 45.1167 243.082 46.3487 243.082 47.742C243.082 48.3727 243.016 48.9447 242.884 49.458C242.766 49.9567 242.568 50.426 242.29 50.866L240.596 50.778C240.801 50.4847 240.962 50.1913 241.08 49.898C241.212 49.59 241.307 49.2527 241.366 48.886C241.424 48.5193 241.454 48.1013 241.454 47.632C241.454 46.4733 241.241 45.4907 240.816 44.684C240.405 43.8627 239.804 43.2393 239.012 42.814C238.234 42.374 237.296 42.154 236.196 42.154C235.081 42.154 234.098 42.3887 233.248 42.858C232.412 43.3273 231.759 43.9873 231.29 44.838C230.835 45.674 230.608 46.6713 230.608 47.83C230.608 48.974 230.828 49.964 231.268 50.8C231.722 51.636 232.36 52.2887 233.182 52.758C234.003 53.2127 234.942 53.44 235.998 53.44C236.775 53.44 237.472 53.33 238.088 53.11C238.704 52.9047 239.246 52.5893 239.716 52.164ZM238.198 49.568H242.29V50.866H238.198V49.568ZM250.012 57.598C248.941 57.598 247.988 57.4 247.152 57.004C246.33 56.608 245.67 56.0507 245.172 55.332L246.448 54.034C246.873 54.5767 247.379 54.9873 247.966 55.266C248.552 55.5593 249.249 55.706 250.056 55.706C251.126 55.706 251.97 55.42 252.586 54.848C253.216 54.2907 253.532 53.5353 253.532 52.582V49.986L253.884 47.632L253.532 45.3V42.55H255.512V52.582C255.512 53.5793 255.277 54.452 254.808 55.2C254.353 55.948 253.708 56.5347 252.872 56.96C252.05 57.3853 251.097 57.598 250.012 57.598ZM250.012 52.824C249.058 52.824 248.2 52.5967 247.438 52.142C246.69 51.6873 246.096 51.064 245.656 50.272C245.216 49.4653 244.996 48.5633 244.996 47.566C244.996 46.5687 245.216 45.6813 245.656 44.904C246.096 44.112 246.69 43.4887 247.438 43.034C248.2 42.5647 249.058 42.33 250.012 42.33C250.833 42.33 251.559 42.4913 252.19 42.814C252.82 43.1367 253.319 43.5913 253.686 44.178C254.067 44.75 254.272 45.4247 254.302 46.202V48.974C254.258 49.7367 254.045 50.4113 253.664 50.998C253.297 51.57 252.798 52.0173 252.168 52.34C251.537 52.6627 250.818 52.824 250.012 52.824ZM250.408 50.954C251.053 50.954 251.618 50.8147 252.102 50.536C252.6 50.2573 252.982 49.8687 253.246 49.37C253.51 48.8567 253.642 48.2627 253.642 47.588C253.642 46.9133 253.502 46.3267 253.224 45.828C252.96 45.3147 252.586 44.9187 252.102 44.64C251.618 44.3467 251.046 44.2 250.386 44.2C249.726 44.2 249.146 44.3467 248.648 44.64C248.149 44.9187 247.753 45.3147 247.46 45.828C247.181 46.3267 247.042 46.906 247.042 47.566C247.042 48.226 247.181 48.8127 247.46 49.326C247.753 49.8393 248.149 50.2427 248.648 50.536C249.161 50.8147 249.748 50.954 250.408 50.954ZM258.418 53V42.55H260.398V53H258.418ZM265.48 53V46.686C265.48 45.9087 265.238 45.3 264.754 44.86C264.284 44.4053 263.69 44.178 262.972 44.178C262.488 44.178 262.055 44.2807 261.674 44.486C261.292 44.6913 260.984 44.9773 260.75 45.344C260.515 45.7107 260.398 46.1507 260.398 46.664L259.584 46.268C259.584 45.476 259.752 44.7867 260.09 44.2C260.442 43.6133 260.918 43.1587 261.52 42.836C262.121 42.4987 262.796 42.33 263.544 42.33C264.277 42.33 264.937 42.4913 265.524 42.814C266.125 43.1367 266.594 43.5913 266.932 44.178C267.284 44.7647 267.46 45.4613 267.46 46.268V53H265.48ZM272.542 53V46.686C272.542 45.9087 272.3 45.3 271.816 44.86C271.346 44.4053 270.76 44.178 270.056 44.178C269.572 44.178 269.132 44.2807 268.736 44.486C268.354 44.6913 268.046 44.9773 267.812 45.344C267.577 45.7107 267.46 46.1507 267.46 46.664L266.338 46.268C266.382 45.4613 266.594 44.772 266.976 44.2C267.372 43.6133 267.878 43.1587 268.494 42.836C269.11 42.4987 269.784 42.33 270.518 42.33C271.28 42.33 271.962 42.4913 272.564 42.814C273.165 43.1367 273.642 43.5913 273.994 44.178C274.36 44.7647 274.544 45.4687 274.544 46.29V53H272.542ZM281.682 53.22C280.729 53.22 279.863 52.9853 279.086 52.516C278.309 52.032 277.693 51.3793 277.238 50.558C276.798 49.7367 276.578 48.8127 276.578 47.786C276.578 46.7593 276.798 45.8353 277.238 45.014C277.693 44.1927 278.301 43.54 279.064 43.056C279.841 42.572 280.714 42.33 281.682 42.33C282.474 42.33 283.178 42.4987 283.794 42.836C284.425 43.1587 284.931 43.6133 285.312 44.2C285.693 44.772 285.906 45.4393 285.95 46.202V49.348C285.906 50.096 285.693 50.7633 285.312 51.35C284.945 51.9367 284.447 52.3987 283.816 52.736C283.2 53.0587 282.489 53.22 281.682 53.22ZM282.012 51.35C282.995 51.35 283.787 51.02 284.388 50.36C284.989 49.6853 285.29 48.8273 285.29 47.786C285.29 47.0673 285.151 46.444 284.872 45.916C284.608 45.3733 284.227 44.9553 283.728 44.662C283.229 44.354 282.65 44.2 281.99 44.2C281.33 44.2 280.743 44.354 280.23 44.662C279.731 44.97 279.335 45.3953 279.042 45.938C278.763 46.466 278.624 47.0747 278.624 47.764C278.624 48.468 278.763 49.0913 279.042 49.634C279.335 50.162 279.739 50.58 280.252 50.888C280.765 51.196 281.352 51.35 282.012 51.35ZM285.158 53V50.184L285.532 47.632L285.158 45.102V42.55H287.16V53H285.158ZM290.065 53V42.55H292.045V53H290.065ZM291.055 40.46C290.688 40.46 290.387 40.3427 290.153 40.108C289.918 39.8587 289.801 39.5507 289.801 39.184C289.801 38.832 289.918 38.5387 290.153 38.304C290.387 38.0547 290.688 37.93 291.055 37.93C291.421 37.93 291.722 38.0547 291.957 38.304C292.191 38.5387 292.309 38.832 292.309 39.184C292.309 39.5507 292.191 39.8587 291.957 40.108C291.722 40.3427 291.421 40.46 291.055 40.46ZM294.963 53V37.292H296.943V53H294.963ZM301.578 53.22C301.167 53.22 300.822 53.0807 300.544 52.802C300.28 52.5087 300.148 52.164 300.148 51.768C300.148 51.3573 300.28 51.02 300.544 50.756C300.822 50.4773 301.167 50.338 301.578 50.338C301.988 50.338 302.326 50.4773 302.59 50.756C302.868 51.02 303.008 51.3573 303.008 51.768C303.008 52.164 302.868 52.5087 302.59 52.802C302.326 53.0807 301.988 53.22 301.578 53.22ZM310.565 53.22C309.538 53.22 308.607 52.978 307.771 52.494C306.95 52.01 306.297 51.3573 305.813 50.536C305.344 49.7 305.109 48.776 305.109 47.764C305.109 46.7373 305.344 45.8133 305.813 44.992C306.297 44.1707 306.95 43.5253 307.771 43.056C308.607 42.572 309.538 42.33 310.565 42.33C311.372 42.33 312.12 42.484 312.809 42.792C313.498 43.0853 314.092 43.518 314.591 44.09L313.271 45.41C312.948 45.0287 312.552 44.7427 312.083 44.552C311.628 44.3467 311.122 44.244 310.565 44.244C309.905 44.244 309.318 44.398 308.805 44.706C308.292 44.9993 307.888 45.41 307.595 45.938C307.302 46.466 307.155 47.0747 307.155 47.764C307.155 48.4533 307.302 49.062 307.595 49.59C307.888 50.118 308.292 50.536 308.805 50.844C309.318 51.152 309.905 51.306 310.565 51.306C311.122 51.306 311.628 51.2107 312.083 51.02C312.552 50.8147 312.956 50.5213 313.293 50.14L314.591 51.46C314.107 52.0173 313.513 52.45 312.809 52.758C312.12 53.066 311.372 53.22 310.565 53.22ZM321.114 53.22C320.087 53.22 319.163 52.978 318.342 52.494C317.52 52.01 316.868 51.3573 316.384 50.536C315.9 49.7 315.658 48.7687 315.658 47.742C315.658 46.73 315.9 45.8207 316.384 45.014C316.868 44.1927 317.52 43.54 318.342 43.056C319.163 42.572 320.087 42.33 321.114 42.33C322.126 42.33 323.042 42.572 323.864 43.056C324.7 43.5253 325.36 44.1707 325.844 44.992C326.328 45.8133 326.57 46.73 326.57 47.742C326.57 48.7687 326.328 49.7 325.844 50.536C325.36 51.3573 324.7 52.01 323.864 52.494C323.042 52.978 322.126 53.22 321.114 53.22ZM321.114 51.306C321.774 51.306 322.36 51.152 322.874 50.844C323.387 50.536 323.79 50.118 324.084 49.59C324.377 49.0473 324.524 48.4313 324.524 47.742C324.524 47.0673 324.37 46.466 324.062 45.938C323.768 45.41 323.365 44.9993 322.852 44.706C322.353 44.398 321.774 44.244 321.114 44.244C320.454 44.244 319.867 44.398 319.354 44.706C318.84 44.9993 318.437 45.41 318.144 45.938C317.85 46.466 317.704 47.0673 317.704 47.742C317.704 48.4313 317.85 49.0473 318.144 49.59C318.437 50.118 318.84 50.536 319.354 50.844C319.867 51.152 320.454 51.306 321.114 51.306ZM328.801 53V42.55H330.781V53H328.801ZM335.863 53V46.686C335.863 45.9087 335.621 45.3 335.137 44.86C334.667 44.4053 334.073 44.178 333.355 44.178C332.871 44.178 332.438 44.2807 332.057 44.486C331.675 44.6913 331.367 44.9773 331.133 45.344C330.898 45.7107 330.781 46.1507 330.781 46.664L329.967 46.268C329.967 45.476 330.135 44.7867 330.473 44.2C330.825 43.6133 331.301 43.1587 331.903 42.836C332.504 42.4987 333.179 42.33 333.927 42.33C334.66 42.33 335.32 42.4913 335.907 42.814C336.508 43.1367 336.977 43.5913 337.315 44.178C337.667 44.7647 337.843 45.4613 337.843 46.268V53H335.863ZM342.925 53V46.686C342.925 45.9087 342.683 45.3 342.199 44.86C341.729 44.4053 341.143 44.178 340.439 44.178C339.955 44.178 339.515 44.2807 339.119 44.486C338.737 44.6913 338.429 44.9773 338.195 45.344C337.96 45.7107 337.843 46.1507 337.843 46.664L336.721 46.268C336.765 45.4613 336.977 44.772 337.359 44.2C337.755 43.6133 338.261 43.1587 338.877 42.836C339.493 42.4987 340.167 42.33 340.901 42.33C341.663 42.33 342.345 42.4913 342.947 42.814C343.548 43.1367 344.025 43.5913 344.377 44.178C344.743 44.7647 344.927 45.4687 344.927 46.29V53H342.925Z" fill="white"/>
<path d="M75.5877 24V11.4H77.6577V24H75.5877ZM77.0097 24V22.11H84.0657V24H77.0097ZM77.0097 18.474V16.656H83.4537V18.474H77.0097ZM77.0097 13.29V11.4H83.9757V13.29H77.0097ZM85.9349 24V15.36H87.9149V24H85.9349ZM91.6769 24V18.852C91.6769 18.276 91.4969 17.832 91.1369 17.52C90.7769 17.196 90.3329 17.034 89.8049 17.034C89.4449 17.034 89.1209 17.106 88.8329 17.25C88.5569 17.394 88.3349 17.604 88.1669 17.88C87.9989 18.144 87.9149 18.468 87.9149 18.852L87.1409 18.42C87.1409 17.76 87.2849 17.19 87.5729 16.71C87.8609 16.23 88.2509 15.858 88.7429 15.594C89.2349 15.318 89.7869 15.18 90.3989 15.18C91.0109 15.18 91.5629 15.312 92.0549 15.576C92.5469 15.84 92.9369 16.212 93.2249 16.692C93.5129 17.172 93.6569 17.748 93.6569 18.42V24H91.6769ZM97.4189 24V18.852C97.4189 18.276 97.2389 17.832 96.8789 17.52C96.5189 17.196 96.0749 17.034 95.5469 17.034C95.1989 17.034 94.8809 17.106 94.5929 17.25C94.3049 17.394 94.0769 17.604 93.9089 17.88C93.7409 18.144 93.6569 18.468 93.6569 18.852L92.5409 18.42C92.6009 17.76 92.7929 17.19 93.1169 16.71C93.4409 16.23 93.8549 15.858 94.3589 15.594C94.8749 15.318 95.4389 15.18 96.0509 15.18C96.6749 15.18 97.2389 15.312 97.7429 15.576C98.2469 15.84 98.6489 16.212 98.9489 16.692C99.2489 17.172 99.3989 17.748 99.3989 18.42V24H97.4189ZM105.057 24.18C104.277 24.18 103.569 23.982 102.933 23.586C102.309 23.19 101.811 22.656 101.439 21.984C101.079 21.3 100.899 20.538 100.899 19.698C100.899 18.846 101.079 18.084 101.439 17.412C101.811 16.728 102.309 16.188 102.933 15.792C103.569 15.384 104.277 15.18 105.057 15.18C105.717 15.18 106.299 15.324 106.803 15.612C107.319 15.888 107.727 16.272 108.027 16.764C108.327 17.256 108.477 17.814 108.477 18.438V20.922C108.477 21.546 108.327 22.104 108.027 22.596C107.739 23.088 107.337 23.478 106.821 23.766C106.305 24.042 105.717 24.18 105.057 24.18ZM105.381 22.308C106.113 22.308 106.701 22.062 107.145 21.57C107.601 21.078 107.829 20.448 107.829 19.68C107.829 19.164 107.727 18.708 107.523 18.312C107.319 17.916 107.031 17.61 106.659 17.394C106.299 17.166 105.873 17.052 105.381 17.052C104.901 17.052 104.475 17.166 104.103 17.394C103.743 17.61 103.455 17.916 103.239 18.312C103.035 18.708 102.933 19.164 102.933 19.68C102.933 20.196 103.035 20.652 103.239 21.048C103.455 21.444 103.743 21.756 104.103 21.984C104.475 22.2 104.901 22.308 105.381 22.308ZM107.703 24V21.678L108.045 19.572L107.703 17.484V15.36H109.683V24H107.703ZM111.898 24V15.36H113.878V24H111.898ZM112.888 13.776C112.552 13.776 112.27 13.662 112.042 13.434C111.826 13.206 111.718 12.924 111.718 12.588C111.718 12.252 111.826 11.97 112.042 11.742C112.27 11.514 112.552 11.4 112.888 11.4C113.236 11.4 113.518 11.514 113.734 11.742C113.95 11.97 114.058 12.252 114.058 12.588C114.058 12.924 113.95 13.206 113.734 13.434C113.518 13.662 113.236 13.776 112.888 13.776ZM116.099 24V11.04H118.079V24H116.099ZM125.218 24.18C124.834 24.18 124.516 24.054 124.264 23.802C124.024 23.538 123.904 23.22 123.904 22.848C123.904 22.464 124.024 22.146 124.264 21.894C124.516 21.642 124.834 21.516 125.218 21.516C125.602 21.516 125.914 21.642 126.154 21.894C126.406 22.146 126.532 22.464 126.532 22.848C126.532 23.22 126.406 23.538 126.154 23.802C125.914 24.054 125.602 24.18 125.218 24.18ZM125.218 18.618C124.834 18.618 124.516 18.492 124.264 18.24C124.024 17.976 123.904 17.658 123.904 17.286C123.904 16.902 124.024 16.584 124.264 16.332C124.516 16.08 124.834 15.954 125.218 15.954C125.602 15.954 125.914 16.08 126.154 16.332C126.406 16.584 126.532 16.902 126.532 17.286C126.532 17.658 126.406 17.976 126.154 18.24C125.914 18.492 125.602 18.618 125.218 18.618Z" fill="#CCAA60"/>
<path d="M39.5769 24.7998H22.8626C22.6921 24.7998 22.5286 24.8688 22.408 24.9915C22.2875 25.1143 22.2197 25.2808 22.2197 25.4544V38.5453C22.2197 38.7189 22.2875 38.8853 22.408 39.0081C22.5286 39.1308 22.6921 39.1998 22.8626 39.1998H39.5769C39.7474 39.1998 39.9109 39.1308 40.0314 39.0081C40.152 38.8853 40.2197 38.7189 40.2197 38.5453V25.4544C40.2197 25.2808 40.152 25.1143 40.0314 24.9915C39.9109 24.8688 39.7474 24.7998 39.5769 24.7998ZM31.6143 33.171C31.5015 33.2603 31.3626 33.3088 31.2197 33.3088C31.0768 33.3088 30.938 33.2603 30.8252 33.171L24.532 28.1875L25.3211 27.1541L31.2197 31.8251L37.1183 27.1541L37.9074 28.1875L31.6143 33.171Z" fill="#CCAA60"/>
</svg>
