<svg width="234" height="62" viewBox="0 0 234 62" fill="none" xmlns="http://www.w3.org/2000/svg">
<circle cx="31.2207" cy="31" r="30" stroke="#CCAA60" stroke-width="2"/>
<path d="M79.0827 55.552C78.276 54.8773 77.5867 54.0413 77.0147 53.044C76.4427 52.0613 76.0027 50.9833 75.6947 49.81C75.3867 48.6367 75.2327 47.4193 75.2327 46.158C75.2327 44.8967 75.3867 43.6793 75.6947 42.506C76.0027 41.3327 76.4427 40.2547 77.0147 39.272C77.5867 38.2747 78.276 37.4387 79.0827 36.764L80.2267 37.798C79.1854 38.7073 78.3787 39.8807 77.8067 41.318C77.2494 42.7553 76.9707 44.3687 76.9707 46.158C76.9707 47.9327 77.2494 49.5387 77.8067 50.976C78.3787 52.4133 79.1854 53.594 80.2267 54.518L79.0827 55.552ZM86.9309 53.22C85.9189 53.22 85.0242 53.0293 84.2469 52.648C83.4842 52.2667 82.8902 51.7387 82.4649 51.064C82.0395 50.3893 81.8269 49.6267 81.8269 48.776C81.8269 48.0867 81.9589 47.456 82.2229 46.884C82.4869 46.312 82.8755 45.828 83.3889 45.432C83.9022 45.0213 84.5035 44.728 85.1929 44.552L85.2589 45.146C84.6722 44.9847 84.1735 44.728 83.7629 44.376C83.3522 44.0093 83.0369 43.584 82.8169 43.1C82.6115 42.6013 82.5089 42.0733 82.5089 41.516C82.5089 40.724 82.6995 40.0273 83.0809 39.426C83.4622 38.8247 83.9829 38.3553 84.6429 38.018C85.3175 37.666 86.0802 37.49 86.9309 37.49C87.7962 37.49 88.5589 37.666 89.2189 38.018C89.8789 38.3553 90.3995 38.8247 90.7809 39.426C91.1622 40.0273 91.3529 40.724 91.3529 41.516C91.3529 42.0733 91.2429 42.6013 91.0229 43.1C90.8175 43.584 90.5095 44.0093 90.0989 44.376C89.7029 44.728 89.2115 44.9847 88.6249 45.146L88.6689 44.552C89.3729 44.728 89.9742 45.0213 90.4729 45.432C90.9862 45.828 91.3749 46.312 91.6389 46.884C91.9175 47.456 92.0569 48.0867 92.0569 48.776C92.0569 49.6267 91.8442 50.3893 91.4189 51.064C90.9935 51.7387 90.3922 52.2667 89.6149 52.648C88.8522 53.0293 87.9575 53.22 86.9309 53.22ZM86.9309 51.35C87.5469 51.35 88.0822 51.2327 88.5369 50.998C89.0062 50.7487 89.3729 50.4113 89.6369 49.986C89.9155 49.5607 90.0549 49.0693 90.0549 48.512C90.0549 47.9693 89.9155 47.4853 89.6369 47.06C89.3729 46.6347 89.0062 46.3047 88.5369 46.07C88.0822 45.8207 87.5469 45.696 86.9309 45.696C86.3295 45.696 85.7942 45.8207 85.3249 46.07C84.8555 46.3047 84.4815 46.6347 84.2029 47.06C83.9389 47.4853 83.8069 47.9693 83.8069 48.512C83.8069 49.0693 83.9389 49.5607 84.2029 49.986C84.4815 50.4113 84.8555 50.7487 85.3249 50.998C85.7942 51.2327 86.3295 51.35 86.9309 51.35ZM86.9309 44.09C87.6642 44.09 88.2655 43.8627 88.7349 43.408C89.2042 42.9533 89.4389 42.3667 89.4389 41.648C89.4389 40.944 89.2042 40.372 88.7349 39.932C88.2655 39.4773 87.6642 39.25 86.9309 39.25C86.2122 39.25 85.6182 39.4773 85.1489 39.932C84.6795 40.372 84.4449 40.944 84.4449 41.648C84.4449 42.3667 84.6795 42.9533 85.1489 43.408C85.6182 43.8627 86.2122 44.09 86.9309 44.09ZM93.7026 47.742L99.2686 37.732H101.601L95.9246 47.742H93.7026ZM93.7026 49.018V47.742L94.5826 47.17H105.407V49.018H93.7026ZM101.161 53V42.902H103.207V53H101.161ZM107.929 55.552L106.785 54.518C107.826 53.594 108.626 52.4133 109.183 50.976C109.74 49.5387 110.019 47.9327 110.019 46.158C110.019 44.3687 109.74 42.7553 109.183 41.318C108.626 39.8807 107.826 38.7073 106.785 37.798L107.929 36.764C108.736 37.4387 109.425 38.2747 109.997 39.272C110.569 40.2547 111.009 41.3327 111.317 42.506C111.625 43.6793 111.779 44.8967 111.779 46.158C111.779 47.4193 111.625 48.6367 111.317 49.81C111.009 50.9833 110.569 52.0613 109.997 53.044C109.425 54.0413 108.736 54.8773 107.929 55.552ZM120.574 53L125.172 46.73L125.92 46.334C125.744 46.6273 125.531 46.884 125.282 47.104C125.033 47.324 124.725 47.4927 124.358 47.61C124.006 47.7273 123.573 47.786 123.06 47.786C122.18 47.786 121.366 47.5733 120.618 47.148C119.885 46.7227 119.298 46.136 118.858 45.388C118.418 44.6253 118.198 43.7673 118.198 42.814C118.198 41.8313 118.44 40.944 118.924 40.152C119.408 39.3453 120.053 38.7073 120.86 38.238C121.667 37.754 122.561 37.512 123.544 37.512C124.541 37.512 125.443 37.7467 126.25 38.216C127.057 38.6853 127.695 39.316 128.164 40.108C128.633 40.8853 128.868 41.7653 128.868 42.748C128.868 44.0973 128.399 45.4393 127.46 46.774L122.972 53H120.574ZM123.544 46.158C124.16 46.158 124.71 46.0113 125.194 45.718C125.693 45.41 126.081 45.0067 126.36 44.508C126.653 43.9947 126.8 43.43 126.8 42.814C126.8 42.1687 126.653 41.5967 126.36 41.098C126.081 40.5847 125.693 40.1813 125.194 39.888C124.71 39.5947 124.16 39.448 123.544 39.448C122.928 39.448 122.371 39.5947 121.872 39.888C121.388 40.1813 120.999 40.5847 120.706 41.098C120.413 41.5967 120.266 42.1687 120.266 42.814C120.266 43.4447 120.413 44.0093 120.706 44.508C120.999 45.0067 121.395 45.41 121.894 45.718C122.393 46.0113 122.943 46.158 123.544 46.158ZM137.568 53L142.166 46.73L142.914 46.334C142.738 46.6273 142.525 46.884 142.276 47.104C142.027 47.324 141.719 47.4927 141.352 47.61C141 47.7273 140.567 47.786 140.054 47.786C139.174 47.786 138.36 47.5733 137.612 47.148C136.879 46.7227 136.292 46.136 135.852 45.388C135.412 44.6253 135.192 43.7673 135.192 42.814C135.192 41.8313 135.434 40.944 135.918 40.152C136.402 39.3453 137.047 38.7073 137.854 38.238C138.661 37.754 139.555 37.512 140.538 37.512C141.535 37.512 142.437 37.7467 143.244 38.216C144.051 38.6853 144.689 39.316 145.158 40.108C145.627 40.8853 145.862 41.7653 145.862 42.748C145.862 44.0973 145.393 45.4393 144.454 46.774L139.966 53H137.568ZM140.538 46.158C141.154 46.158 141.704 46.0113 142.188 45.718C142.687 45.41 143.075 45.0067 143.354 44.508C143.647 43.9947 143.794 43.43 143.794 42.814C143.794 42.1687 143.647 41.5967 143.354 41.098C143.075 40.5847 142.687 40.1813 142.188 39.888C141.704 39.5947 141.154 39.448 140.538 39.448C139.922 39.448 139.365 39.5947 138.866 39.888C138.382 40.1813 137.993 40.5847 137.7 41.098C137.407 41.5967 137.26 42.1687 137.26 42.814C137.26 43.4447 137.407 44.0093 137.7 44.508C137.993 45.0067 138.389 45.41 138.888 45.718C139.387 46.0113 139.937 46.158 140.538 46.158ZM150.365 53V37.732H152.411V53H150.365ZM147.241 39.58V37.732H152.191V39.58H147.241ZM157.992 53V37.732H160.038V53H157.992ZM154.868 39.58V37.732H159.818V39.58H154.868ZM167.269 53.22C166.227 53.22 165.296 53.0367 164.475 52.67C163.668 52.2887 162.986 51.7387 162.429 51.02L163.837 49.612C164.174 50.1253 164.636 50.536 165.223 50.844C165.824 51.1373 166.491 51.284 167.225 51.284C167.914 51.284 168.515 51.152 169.029 50.888C169.557 50.624 169.967 50.2573 170.261 49.788C170.569 49.304 170.723 48.732 170.723 48.072C170.723 47.3973 170.576 46.8253 170.283 46.356C169.989 45.8867 169.593 45.5347 169.095 45.3C168.611 45.0507 168.075 44.926 167.489 44.926C166.887 44.926 166.337 44.9993 165.839 45.146C165.355 45.2927 164.893 45.542 164.453 45.894L164.475 44.574C164.724 44.266 165.01 44.0167 165.333 43.826C165.655 43.6353 166.022 43.4887 166.433 43.386C166.843 43.2833 167.32 43.232 167.863 43.232C168.919 43.232 169.813 43.452 170.547 43.892C171.28 44.332 171.837 44.926 172.219 45.674C172.615 46.422 172.812 47.258 172.812 48.182C172.812 49.15 172.571 50.0153 172.087 50.778C171.617 51.5407 170.965 52.142 170.129 52.582C169.293 53.0073 168.339 53.22 167.269 53.22ZM164.453 45.894L163.331 44.772L164.013 37.732H165.905L165.135 44.97L164.453 45.894ZM164.431 39.58L164.013 37.732H172.043V39.58H164.431ZM175.167 48.336V46.466H182.405V48.336H175.167ZM190.059 53.22C189.047 53.22 188.138 52.9853 187.331 52.516C186.539 52.0467 185.909 51.416 185.439 50.624C184.97 49.832 184.735 48.952 184.735 47.984C184.735 46.6347 185.205 45.2927 186.143 43.958L190.631 37.732H193.029L188.431 44.002L187.683 44.398C187.859 44.09 188.072 43.8333 188.321 43.628C188.571 43.408 188.879 43.2393 189.245 43.122C189.612 43.0047 190.045 42.946 190.543 42.946C191.438 42.946 192.245 43.1587 192.963 43.584C193.697 44.0093 194.283 44.596 194.723 45.344C195.178 46.0773 195.405 46.9353 195.405 47.918C195.405 48.886 195.163 49.7733 194.679 50.58C194.21 51.3867 193.565 52.032 192.743 52.516C191.937 52.9853 191.042 53.22 190.059 53.22ZM190.059 51.284C190.675 51.284 191.225 51.1373 191.709 50.844C192.208 50.536 192.597 50.1327 192.875 49.634C193.169 49.1207 193.315 48.5487 193.315 47.918C193.315 47.2873 193.169 46.7227 192.875 46.224C192.597 45.7107 192.208 45.3073 191.709 45.014C191.225 44.7207 190.675 44.574 190.059 44.574C189.443 44.574 188.886 44.7207 188.387 45.014C187.903 45.3073 187.515 45.7107 187.221 46.224C186.943 46.7227 186.803 47.2873 186.803 47.918C186.803 48.5487 186.943 49.1207 187.221 49.634C187.515 50.1473 187.903 50.5507 188.387 50.844C188.886 51.1373 189.443 51.284 190.059 51.284ZM196.999 47.742L202.565 37.732H204.897L199.221 47.742H196.999ZM196.999 49.018V47.742L197.879 47.17H208.703V49.018H196.999ZM204.457 53V42.902H206.503V53H204.457ZM214.556 53.22C213.514 53.22 212.583 53.0367 211.762 52.67C210.955 52.2887 210.273 51.7387 209.716 51.02L211.124 49.612C211.461 50.1253 211.923 50.536 212.51 50.844C213.111 51.1373 213.778 51.284 214.512 51.284C215.201 51.284 215.802 51.152 216.316 50.888C216.844 50.624 217.254 50.2573 217.548 49.788C217.856 49.304 218.01 48.732 218.01 48.072C218.01 47.3973 217.863 46.8253 217.57 46.356C217.276 45.8867 216.88 45.5347 216.382 45.3C215.898 45.0507 215.362 44.926 214.776 44.926C214.174 44.926 213.624 44.9993 213.126 45.146C212.642 45.2927 212.18 45.542 211.74 45.894L211.762 44.574C212.011 44.266 212.297 44.0167 212.62 43.826C212.942 43.6353 213.309 43.4887 213.72 43.386C214.13 43.2833 214.607 43.232 215.15 43.232C216.206 43.232 217.1 43.452 217.834 43.892C218.567 44.332 219.124 44.926 219.506 45.674C219.902 46.422 220.1 47.258 220.1 48.182C220.1 49.15 219.858 50.0153 219.374 50.778C218.904 51.5407 218.252 52.142 217.416 52.582C216.58 53.0073 215.626 53.22 214.556 53.22ZM211.74 45.894L210.618 44.772L211.3 37.732H213.192L212.422 44.97L211.74 45.894ZM211.718 39.58L211.3 37.732H219.33V39.58H211.718ZM226.458 53.22C225.417 53.22 224.485 53.0367 223.664 52.67C222.857 52.2887 222.175 51.7387 221.618 51.02L223.026 49.612C223.363 50.1253 223.825 50.536 224.412 50.844C225.013 51.1373 225.681 51.284 226.414 51.284C227.103 51.284 227.705 51.152 228.218 50.888C228.746 50.624 229.157 50.2573 229.45 49.788C229.758 49.304 229.912 48.732 229.912 48.072C229.912 47.3973 229.765 46.8253 229.472 46.356C229.179 45.8867 228.783 45.5347 228.284 45.3C227.8 45.0507 227.265 44.926 226.678 44.926C226.077 44.926 225.527 44.9993 225.028 45.146C224.544 45.2927 224.082 45.542 223.642 45.894L223.664 44.574C223.913 44.266 224.199 44.0167 224.522 43.826C224.845 43.6353 225.211 43.4887 225.622 43.386C226.033 43.2833 226.509 43.232 227.052 43.232C228.108 43.232 229.003 43.452 229.736 43.892C230.469 44.332 231.027 44.926 231.408 45.674C231.804 46.422 232.002 47.258 232.002 48.182C232.002 49.15 231.76 50.0153 231.276 50.778C230.807 51.5407 230.154 52.142 229.318 52.582C228.482 53.0073 227.529 53.22 226.458 53.22ZM223.642 45.894L222.52 44.772L223.202 37.732H225.094L224.324 44.97L223.642 45.894ZM223.62 39.58L223.202 37.732H231.232V39.58H223.62Z" fill="white"/>
<path d="M81.3127 24.18C80.4007 24.18 79.5547 24.018 78.7747 23.694C78.0067 23.358 77.3347 22.896 76.7587 22.308C76.1827 21.708 75.7387 21.018 75.4267 20.238C75.1147 19.446 74.9587 18.6 74.9587 17.7C74.9587 16.8 75.1147 15.96 75.4267 15.18C75.7387 14.388 76.1827 13.698 76.7587 13.11C77.3347 12.522 78.0067 12.06 78.7747 11.724C79.5547 11.388 80.4007 11.22 81.3127 11.22C82.3327 11.22 83.2147 11.388 83.9587 11.724C84.7027 12.06 85.3627 12.516 85.9387 13.092L84.5347 14.496C84.1627 14.088 83.7067 13.77 83.1667 13.542C82.6387 13.314 82.0207 13.2 81.3127 13.2C80.6887 13.2 80.1187 13.308 79.6027 13.524C79.0867 13.74 78.6367 14.052 78.2527 14.46C77.8807 14.856 77.5927 15.33 77.3887 15.882C77.1847 16.434 77.0827 17.04 77.0827 17.7C77.0827 18.36 77.1847 18.966 77.3887 19.518C77.5927 20.07 77.8807 20.55 78.2527 20.958C78.6367 21.354 79.0867 21.66 79.6027 21.876C80.1187 22.092 80.6887 22.2 81.3127 22.2C82.0807 22.2 82.7287 22.086 83.2567 21.858C83.7967 21.618 84.2527 21.294 84.6247 20.886L86.0287 22.29C85.4527 22.878 84.7747 23.34 83.9947 23.676C83.2147 24.012 82.3207 24.18 81.3127 24.18ZM91.3021 24.18C90.4621 24.18 89.7001 23.982 89.0161 23.586C88.3321 23.178 87.7861 22.632 87.3781 21.948C86.9821 21.264 86.7841 20.502 86.7841 19.662C86.7841 18.822 86.9821 18.066 87.3781 17.394C87.7861 16.722 88.3321 16.188 89.0161 15.792C89.7001 15.384 90.4621 15.18 91.3021 15.18C92.1541 15.18 92.9221 15.378 93.6061 15.774C94.2901 16.17 94.8301 16.71 95.2261 17.394C95.6341 18.066 95.8381 18.822 95.8381 19.662C95.8381 20.502 95.6341 21.264 95.2261 21.948C94.8301 22.632 94.2901 23.178 93.6061 23.586C92.9221 23.982 92.1541 24.18 91.3021 24.18ZM91.3021 22.272C91.7941 22.272 92.2261 22.164 92.5981 21.948C92.9821 21.72 93.2761 21.408 93.4801 21.012C93.6961 20.616 93.8041 20.166 93.8041 19.662C93.8041 19.158 93.6961 18.714 93.4801 18.33C93.2641 17.946 92.9701 17.646 92.5981 17.43C92.2261 17.202 91.7941 17.088 91.3021 17.088C90.8221 17.088 90.3901 17.202 90.0061 17.43C89.6341 17.646 89.3401 17.946 89.1241 18.33C88.9201 18.714 88.8181 19.158 88.8181 19.662C88.8181 20.166 88.9201 20.616 89.1241 21.012C89.3401 21.408 89.6341 21.72 90.0061 21.948C90.3901 22.164 90.8221 22.272 91.3021 22.272ZM103.407 24V19.014C103.407 18.438 103.221 17.964 102.849 17.592C102.489 17.22 102.021 17.034 101.445 17.034C101.061 17.034 100.719 17.118 100.419 17.286C100.119 17.454 99.8847 17.688 99.7167 17.988C99.5487 18.288 99.4647 18.63 99.4647 19.014L98.6907 18.582C98.6907 17.922 98.8347 17.34 99.1227 16.836C99.4107 16.32 99.8067 15.918 100.311 15.63C100.827 15.33 101.403 15.18 102.039 15.18C102.687 15.18 103.263 15.348 103.767 15.684C104.271 16.008 104.667 16.434 104.955 16.962C105.243 17.478 105.387 18.018 105.387 18.582V24H103.407ZM97.4847 24V15.36H99.4647V24H97.4847ZM108.607 24V11.76H110.587V24H108.607ZM106.537 17.16V15.36H112.657V17.16H106.537ZM117.468 24.18C116.688 24.18 115.98 23.982 115.344 23.586C114.72 23.19 114.222 22.656 113.85 21.984C113.49 21.3 113.31 20.538 113.31 19.698C113.31 18.846 113.49 18.084 113.85 17.412C114.222 16.728 114.72 16.188 115.344 15.792C115.98 15.384 116.688 15.18 117.468 15.18C118.128 15.18 118.71 15.324 119.214 15.612C119.73 15.888 120.138 16.272 120.438 16.764C120.738 17.256 120.888 17.814 120.888 18.438V20.922C120.888 21.546 120.738 22.104 120.438 22.596C120.15 23.088 119.748 23.478 119.232 23.766C118.716 24.042 118.128 24.18 117.468 24.18ZM117.792 22.308C118.524 22.308 119.112 22.062 119.556 21.57C120.012 21.078 120.24 20.448 120.24 19.68C120.24 19.164 120.138 18.708 119.934 18.312C119.73 17.916 119.442 17.61 119.07 17.394C118.71 17.166 118.284 17.052 117.792 17.052C117.312 17.052 116.886 17.166 116.514 17.394C116.154 17.61 115.866 17.916 115.65 18.312C115.446 18.708 115.344 19.164 115.344 19.68C115.344 20.196 115.446 20.652 115.65 21.048C115.866 21.444 116.154 21.756 116.514 21.984C116.886 22.2 117.312 22.308 117.792 22.308ZM120.114 24V21.678L120.456 19.572L120.114 17.484V15.36H122.094V24H120.114ZM125.605 24V11.76H127.585V24H125.605ZM123.535 17.16V15.36H129.655V17.16H123.535ZM134.808 24.18C133.968 24.18 133.206 23.982 132.522 23.586C131.838 23.178 131.292 22.632 130.884 21.948C130.488 21.264 130.29 20.502 130.29 19.662C130.29 18.822 130.488 18.066 130.884 17.394C131.292 16.722 131.838 16.188 132.522 15.792C133.206 15.384 133.968 15.18 134.808 15.18C135.66 15.18 136.428 15.378 137.112 15.774C137.796 16.17 138.336 16.71 138.732 17.394C139.14 18.066 139.344 18.822 139.344 19.662C139.344 20.502 139.14 21.264 138.732 21.948C138.336 22.632 137.796 23.178 137.112 23.586C136.428 23.982 135.66 24.18 134.808 24.18ZM134.808 22.272C135.3 22.272 135.732 22.164 136.104 21.948C136.488 21.72 136.782 21.408 136.986 21.012C137.202 20.616 137.31 20.166 137.31 19.662C137.31 19.158 137.202 18.714 136.986 18.33C136.77 17.946 136.476 17.646 136.104 17.43C135.732 17.202 135.3 17.088 134.808 17.088C134.328 17.088 133.896 17.202 133.512 17.43C133.14 17.646 132.846 17.946 132.63 18.33C132.426 18.714 132.324 19.158 132.324 19.662C132.324 20.166 132.426 20.616 132.63 21.012C132.846 21.408 133.14 21.72 133.512 21.948C133.896 22.164 134.328 22.272 134.808 22.272ZM142.323 24.18C141.939 24.18 141.621 24.054 141.369 23.802C141.129 23.538 141.009 23.22 141.009 22.848C141.009 22.464 141.129 22.146 141.369 21.894C141.621 21.642 141.939 21.516 142.323 21.516C142.707 21.516 143.019 21.642 143.259 21.894C143.511 22.146 143.637 22.464 143.637 22.848C143.637 23.22 143.511 23.538 143.259 23.802C143.019 24.054 142.707 24.18 142.323 24.18ZM142.323 18.618C141.939 18.618 141.621 18.492 141.369 18.24C141.129 17.976 141.009 17.658 141.009 17.286C141.009 16.902 141.129 16.584 141.369 16.332C141.621 16.08 141.939 15.954 142.323 15.954C142.707 15.954 143.019 16.08 143.259 16.332C143.511 16.584 143.637 16.902 143.637 17.286C143.637 17.658 143.511 17.976 143.259 18.24C143.019 18.492 142.707 18.618 142.323 18.618Z" fill="#CCAA60"/>
<path d="M39.1809 35.8312C38.9828 35.6202 38.2834 34.9964 36.9978 34.171C35.7026 33.3385 34.7475 32.8193 34.4735 32.6983C34.4494 32.6876 34.4228 32.6836 34.3966 32.6869C34.3704 32.6902 34.3455 32.7006 34.3248 32.7169C33.8834 33.0611 33.1404 33.6933 33.1006 33.7274C32.8433 33.9479 32.8433 33.9479 32.6327 33.8792C32.2623 33.7578 31.1118 33.1468 30.1092 32.142C29.1066 31.1371 28.4642 29.9581 28.3427 29.5881C28.2733 29.3772 28.2733 29.3772 28.4945 29.1199C28.5287 29.08 29.1613 28.337 29.5054 27.8961C29.5218 27.8753 29.5321 27.8505 29.5354 27.8243C29.5387 27.7981 29.5347 27.7715 29.524 27.7473C29.403 27.473 28.8839 26.5182 28.0513 25.2231C27.2248 23.9378 26.6017 23.2384 26.3907 23.0404C26.3714 23.0221 26.3474 23.0094 26.3214 23.0036C26.2955 22.9978 26.2684 22.9991 26.2431 23.0073C25.5056 23.2608 24.794 23.5842 24.118 23.9731C23.4655 24.3524 22.8477 24.7886 22.2719 25.2766C22.2518 25.2937 22.2367 25.3159 22.2283 25.3409C22.2199 25.3659 22.2184 25.3927 22.2241 25.4185C22.3034 25.7881 22.6825 27.331 23.8589 29.4682C25.0591 31.6494 25.891 32.767 27.6536 34.5235C29.4163 36.2801 30.5691 37.162 32.7526 38.3623C34.8898 39.5386 36.4335 39.9181 36.8024 39.9967C36.8282 40.0023 36.855 40.0008 36.8801 39.9924C36.9052 39.984 36.9275 39.9689 36.9447 39.9488C37.4325 39.373 37.8686 38.7553 38.2478 38.1027C38.6366 37.4267 38.96 36.7152 39.2135 35.9777C39.2216 35.9526 39.2229 35.9258 39.2172 35.9C39.2114 35.8742 39.1989 35.8505 39.1809 35.8312Z" fill="#CCAA60"/>
</svg>
