<svg width="305" height="117" viewBox="0 0 305 117" fill="none" xmlns="http://www.w3.org/2000/svg">
<rect width="304" height="116" transform="translate(0.954102 0.5)" fill="#D1B06B"/>
<path d="M43.9541 34.5C43.9541 32.2909 45.745 30.5 47.9541 30.5H119.954C122.163 30.5 123.954 32.2909 123.954 34.5V82.5C123.954 84.7091 122.163 86.5 119.954 86.5H47.9541C45.745 86.5 43.9541 84.7091 43.9541 82.5V34.5Z" fill="#1F2732"/>
<path d="M63.6341 69.5V48.32H68.3141V69.5H63.6341ZM59.5541 52.31V48.32H68.0141V52.31H59.5541ZM77.912 69.83C76.452 69.83 75.082 69.58 73.802 69.08C72.542 68.56 71.492 67.82 70.652 66.86L73.712 63.83C74.092 64.39 74.642 64.85 75.362 65.21C76.102 65.55 76.902 65.72 77.762 65.72C78.522 65.72 79.182 65.59 79.742 65.33C80.302 65.05 80.742 64.66 81.062 64.16C81.382 63.64 81.542 63.04 81.542 62.36C81.542 61.66 81.382 61.06 81.062 60.56C80.742 60.06 80.292 59.68 79.712 59.42C79.152 59.14 78.512 59 77.792 59C77.072 59 76.412 59.1 75.812 59.3C75.212 59.48 74.662 59.76 74.162 60.14L74.552 57.14C75.012 56.78 75.452 56.49 75.872 56.27C76.292 56.03 76.752 55.85 77.252 55.73C77.752 55.61 78.342 55.55 79.022 55.55C80.582 55.55 81.892 55.87 82.952 56.51C84.032 57.15 84.842 58 85.382 59.06C85.942 60.12 86.222 61.29 86.222 62.57C86.222 63.97 85.872 65.22 85.172 66.32C84.492 67.42 83.532 68.28 82.292 68.9C81.052 69.52 79.592 69.83 77.912 69.83ZM74.162 60.14L72.122 58.25L73.142 48.32H77.402L76.292 58.16L74.162 60.14ZM73.772 52.31L73.142 48.32H85.052V52.31H73.772ZM88.5491 61.37V57.56H102.499V61.37H88.5491ZM93.5891 52.13H97.4891V66.74H93.5891V52.13Z" fill="white"/>
<path d="M146.482 56.5L152.818 41.1H154.578L160.87 56.5H158.142L153.214 44.026H154.138L149.166 56.5H146.482ZM149.606 53.53V51.33H157.768V53.53H149.606ZM169.981 56.5V50.406C169.981 49.702 169.754 49.1227 169.299 48.668C168.859 48.2133 168.287 47.986 167.583 47.986C167.114 47.986 166.696 48.0887 166.329 48.294C165.963 48.4993 165.677 48.7853 165.471 49.152C165.266 49.5187 165.163 49.9367 165.163 50.406L164.217 49.878C164.217 49.0713 164.393 48.36 164.745 47.744C165.097 47.1133 165.581 46.622 166.197 46.27C166.828 45.9033 167.532 45.72 168.309 45.72C169.101 45.72 169.805 45.9253 170.421 46.336C171.037 46.732 171.521 47.2527 171.873 47.898C172.225 48.5287 172.401 49.1887 172.401 49.878V56.5H169.981ZM162.743 56.5V45.94H165.163V56.5H162.743ZM179.701 56.72C178.674 56.72 177.743 56.478 176.907 55.994C176.071 55.4953 175.403 54.828 174.905 53.992C174.421 53.156 174.179 52.2247 174.179 51.198C174.179 50.1713 174.421 49.2473 174.905 48.426C175.403 47.6047 176.071 46.952 176.907 46.468C177.743 45.9693 178.674 45.72 179.701 45.72C180.742 45.72 181.681 45.962 182.517 46.446C183.353 46.93 184.013 47.59 184.497 48.426C184.995 49.2473 185.245 50.1713 185.245 51.198C185.245 52.2247 184.995 53.156 184.497 53.992C184.013 54.828 183.353 55.4953 182.517 55.994C181.681 56.478 180.742 56.72 179.701 56.72ZM179.701 54.388C180.302 54.388 180.83 54.256 181.285 53.992C181.754 53.7133 182.113 53.332 182.363 52.848C182.627 52.364 182.759 51.814 182.759 51.198C182.759 50.582 182.627 50.0393 182.363 49.57C182.099 49.1007 181.739 48.734 181.285 48.47C180.83 48.1913 180.302 48.052 179.701 48.052C179.114 48.052 178.586 48.1913 178.117 48.47C177.662 48.734 177.303 49.1007 177.039 49.57C176.789 50.0393 176.665 50.582 176.665 51.198C176.665 51.814 176.789 52.364 177.039 52.848C177.303 53.332 177.662 53.7133 178.117 53.992C178.586 54.256 179.114 54.388 179.701 54.388ZM190.711 56.72C190.124 56.72 189.56 56.6467 189.017 56.5C188.474 56.3387 187.976 56.1187 187.521 55.84C187.066 55.5467 186.67 55.1947 186.333 54.784L187.873 53.244C188.24 53.6693 188.658 53.992 189.127 54.212C189.611 54.4173 190.154 54.52 190.755 54.52C191.298 54.52 191.708 54.4393 191.987 54.278C192.266 54.1167 192.405 53.882 192.405 53.574C192.405 53.2513 192.273 53.002 192.009 52.826C191.745 52.65 191.4 52.5033 190.975 52.386C190.564 52.254 190.124 52.122 189.655 51.99C189.2 51.858 188.76 51.682 188.335 51.462C187.924 51.2273 187.587 50.912 187.323 50.516C187.059 50.12 186.927 49.6067 186.927 48.976C186.927 48.3013 187.081 47.722 187.389 47.238C187.712 46.754 188.159 46.38 188.731 46.116C189.318 45.852 190.014 45.72 190.821 45.72C191.672 45.72 192.42 45.874 193.065 46.182C193.725 46.4753 194.275 46.9227 194.715 47.524L193.175 49.064C192.867 48.6827 192.515 48.3967 192.119 48.206C191.723 48.0153 191.268 47.92 190.755 47.92C190.271 47.92 189.897 47.9933 189.633 48.14C189.369 48.2867 189.237 48.4993 189.237 48.778C189.237 49.0713 189.369 49.2987 189.633 49.46C189.897 49.6213 190.234 49.7607 190.645 49.878C191.07 49.9953 191.51 50.1273 191.965 50.274C192.434 50.406 192.874 50.5967 193.285 50.846C193.71 51.0807 194.055 51.4033 194.319 51.814C194.583 52.21 194.715 52.7307 194.715 53.376C194.715 54.4027 194.356 55.2167 193.637 55.818C192.918 56.4193 191.943 56.72 190.711 56.72ZM205.536 56.72C204.583 56.72 203.718 56.478 202.94 55.994C202.178 55.51 201.569 54.8573 201.114 54.036C200.674 53.2 200.454 52.2687 200.454 51.242C200.454 50.2007 200.674 49.2693 201.114 48.448C201.569 47.612 202.178 46.952 202.94 46.468C203.718 45.9693 204.583 45.72 205.536 45.72C206.343 45.72 207.054 45.896 207.67 46.248C208.301 46.5853 208.8 47.0547 209.166 47.656C209.533 48.2573 209.716 48.9393 209.716 49.702V52.738C209.716 53.5007 209.533 54.1827 209.166 54.784C208.814 55.3853 208.323 55.862 207.692 56.214C207.062 56.5513 206.343 56.72 205.536 56.72ZM205.932 54.432C206.534 54.432 207.054 54.3 207.494 54.036C207.949 53.7573 208.301 53.376 208.55 52.892C208.8 52.408 208.924 51.8507 208.924 51.22C208.924 50.5893 208.8 50.032 208.55 49.548C208.301 49.064 207.949 48.69 207.494 48.426C207.054 48.1473 206.534 48.008 205.932 48.008C205.346 48.008 204.825 48.1473 204.37 48.426C203.93 48.69 203.578 49.064 203.314 49.548C203.065 50.032 202.94 50.5893 202.94 51.22C202.94 51.8507 203.065 52.408 203.314 52.892C203.578 53.376 203.93 53.7573 204.37 54.036C204.825 54.3 205.346 54.432 205.932 54.432ZM211.19 56.5H208.77V53.662L209.188 51.088L208.77 48.536V40.66H211.19V56.5ZM218.782 56.72C217.726 56.72 216.773 56.4853 215.922 56.016C215.086 55.532 214.419 54.872 213.92 54.036C213.436 53.2 213.194 52.2613 213.194 51.22C213.194 50.1787 213.436 49.2473 213.92 48.426C214.404 47.59 215.057 46.93 215.878 46.446C216.714 45.962 217.638 45.72 218.65 45.72C219.633 45.72 220.498 45.9473 221.246 46.402C222.009 46.8567 222.603 47.48 223.028 48.272C223.468 49.064 223.688 49.966 223.688 50.978C223.688 51.154 223.674 51.3373 223.644 51.528C223.63 51.704 223.6 51.902 223.556 52.122H214.888V50.142H222.302L221.4 50.934C221.371 50.2887 221.246 49.746 221.026 49.306C220.806 48.866 220.491 48.5287 220.08 48.294C219.684 48.0593 219.193 47.942 218.606 47.942C217.99 47.942 217.455 48.074 217 48.338C216.546 48.602 216.194 48.976 215.944 49.46C215.695 49.9293 215.57 50.494 215.57 51.154C215.57 51.814 215.702 52.3933 215.966 52.892C216.23 53.3907 216.604 53.7793 217.088 54.058C217.572 54.322 218.13 54.454 218.76 54.454C219.303 54.454 219.802 54.3587 220.256 54.168C220.726 53.9773 221.122 53.6987 221.444 53.332L222.984 54.894C222.471 55.4953 221.848 55.95 221.114 56.258C220.381 56.566 219.604 56.72 218.782 56.72ZM147.626 77.5V62.1H150.156V77.5H147.626ZM149.364 77.5V75.19H157.988V77.5H149.364ZM149.364 70.746V68.524H157.24V70.746H149.364ZM149.364 64.41V62.1H157.878V64.41H149.364ZM166.961 77.5L163.925 73.034L163.485 72.638L159.393 66.94H162.319L165.025 70.856L165.443 71.23L169.865 77.5H166.961ZM159.195 77.5L163.463 71.582L164.871 73.32L162.011 77.5H159.195ZM165.663 72.594L164.233 70.878L166.873 66.94H169.667L165.663 72.594ZM177.12 77.72C176.313 77.72 175.595 77.5513 174.964 77.214C174.333 76.862 173.835 76.3853 173.468 75.784C173.116 75.1827 172.94 74.5007 172.94 73.738V70.702C172.94 69.9393 173.123 69.2573 173.49 68.656C173.857 68.0547 174.355 67.5853 174.986 67.248C175.617 66.896 176.328 66.72 177.12 66.72C178.073 66.72 178.931 66.9693 179.694 67.468C180.471 67.952 181.08 68.612 181.52 69.448C181.975 70.2693 182.202 71.2007 182.202 72.242C182.202 73.2687 181.975 74.2 181.52 75.036C181.08 75.8573 180.471 76.51 179.694 76.994C178.931 77.478 178.073 77.72 177.12 77.72ZM176.724 75.432C177.311 75.432 177.824 75.3 178.264 75.036C178.719 74.7573 179.071 74.376 179.32 73.892C179.584 73.408 179.716 72.8507 179.716 72.22C179.716 71.5893 179.584 71.032 179.32 70.548C179.071 70.064 178.719 69.69 178.264 69.426C177.824 69.1473 177.311 69.008 176.724 69.008C176.137 69.008 175.617 69.1473 175.162 69.426C174.707 69.69 174.355 70.064 174.106 70.548C173.857 71.032 173.732 71.5893 173.732 72.22C173.732 72.8507 173.857 73.408 174.106 73.892C174.355 74.376 174.707 74.7573 175.162 75.036C175.617 75.3 176.137 75.432 176.724 75.432ZM171.466 81.9V66.94H173.886V69.778L173.468 72.352L173.886 74.904V81.9H171.466ZM189.134 77.72C188.078 77.72 187.124 77.4853 186.274 77.016C185.438 76.532 184.77 75.872 184.272 75.036C183.788 74.2 183.546 73.2613 183.546 72.22C183.546 71.1787 183.788 70.2473 184.272 69.426C184.756 68.59 185.408 67.93 186.23 67.446C187.066 66.962 187.99 66.72 189.002 66.72C189.984 66.72 190.85 66.9473 191.598 67.402C192.36 67.8567 192.954 68.48 193.38 69.272C193.82 70.064 194.04 70.966 194.04 71.978C194.04 72.154 194.025 72.3373 193.996 72.528C193.981 72.704 193.952 72.902 193.908 73.122H185.24V71.142H192.654L191.752 71.934C191.722 71.2887 191.598 70.746 191.378 70.306C191.158 69.866 190.842 69.5287 190.432 69.294C190.036 69.0593 189.544 68.942 188.958 68.942C188.342 68.942 187.806 69.074 187.352 69.338C186.897 69.602 186.545 69.976 186.296 70.46C186.046 70.9293 185.922 71.494 185.922 72.154C185.922 72.814 186.054 73.3933 186.318 73.892C186.582 74.3907 186.956 74.7793 187.44 75.058C187.924 75.322 188.481 75.454 189.112 75.454C189.654 75.454 190.153 75.3587 190.608 75.168C191.077 74.9773 191.473 74.6987 191.796 74.332L193.336 75.894C192.822 76.4953 192.199 76.95 191.466 77.258C190.732 77.566 189.955 77.72 189.134 77.72ZM195.98 77.5V66.94H198.4V77.5H195.98ZM198.4 71.626L197.564 71.208C197.564 69.8733 197.857 68.7953 198.444 67.974C199.045 67.138 199.947 66.72 201.15 66.72C201.678 66.72 202.154 66.8153 202.58 67.006C203.005 67.1967 203.401 67.5047 203.768 67.93L202.184 69.558C201.993 69.3527 201.78 69.206 201.546 69.118C201.311 69.03 201.04 68.986 200.732 68.986C200.057 68.986 199.5 69.1987 199.06 69.624C198.62 70.0493 198.4 70.7167 198.4 71.626ZM204.961 77.5V66.94H207.381V77.5H204.961ZM206.171 65.004C205.76 65.004 205.415 64.8647 205.137 64.586C204.873 64.3073 204.741 63.9627 204.741 63.552C204.741 63.1413 204.873 62.7967 205.137 62.518C205.415 62.2393 205.76 62.1 206.171 62.1C206.596 62.1 206.941 62.2393 207.205 62.518C207.469 62.7967 207.601 63.1413 207.601 63.552C207.601 63.9627 207.469 64.3073 207.205 64.586C206.941 64.8647 206.596 65.004 206.171 65.004ZM215.001 77.72C213.945 77.72 212.992 77.4853 212.141 77.016C211.305 76.532 210.638 75.872 210.139 75.036C209.655 74.2 209.413 73.2613 209.413 72.22C209.413 71.1787 209.655 70.2473 210.139 69.426C210.623 68.59 211.276 67.93 212.097 67.446C212.933 66.962 213.857 66.72 214.869 66.72C215.852 66.72 216.717 66.9473 217.465 67.402C218.228 67.8567 218.822 68.48 219.247 69.272C219.687 70.064 219.907 70.966 219.907 71.978C219.907 72.154 219.892 72.3373 219.863 72.528C219.848 72.704 219.819 72.902 219.775 73.122H211.107V71.142H218.521L217.619 71.934C217.59 71.2887 217.465 70.746 217.245 70.306C217.025 69.866 216.71 69.5287 216.299 69.294C215.903 69.0593 215.412 68.942 214.825 68.942C214.209 68.942 213.674 69.074 213.219 69.338C212.764 69.602 212.412 69.976 212.163 70.46C211.914 70.9293 211.789 71.494 211.789 72.154C211.789 72.814 211.921 73.3933 212.185 73.892C212.449 74.3907 212.823 74.7793 213.307 75.058C213.791 75.322 214.348 75.454 214.979 75.454C215.522 75.454 216.02 75.3587 216.475 75.168C216.944 74.9773 217.34 74.6987 217.663 74.332L219.203 75.894C218.69 76.4953 218.066 76.95 217.333 77.258C216.6 77.566 215.822 77.72 215.001 77.72ZM212.031 65.466L210.931 64.366L213.923 60.956H215.749L218.741 64.366L217.641 65.466L214.033 62.54L215.661 62.562L212.031 65.466ZM229.085 77.5V71.406C229.085 70.702 228.858 70.1227 228.403 69.668C227.963 69.2133 227.391 68.986 226.687 68.986C226.218 68.986 225.8 69.0887 225.433 69.294C225.066 69.4993 224.78 69.7853 224.575 70.152C224.37 70.5187 224.267 70.9367 224.267 71.406L223.321 70.878C223.321 70.0713 223.497 69.36 223.849 68.744C224.201 68.1133 224.685 67.622 225.301 67.27C225.932 66.9033 226.636 66.72 227.413 66.72C228.205 66.72 228.909 66.9253 229.525 67.336C230.141 67.732 230.625 68.2527 230.977 68.898C231.329 69.5287 231.505 70.1887 231.505 70.878V77.5H229.085ZM221.847 77.5V66.94H224.267V77.5H221.847ZM238.826 77.72C237.785 77.72 236.839 77.478 235.988 76.994C235.152 76.51 234.492 75.85 234.008 75.014C233.524 74.178 233.282 73.2467 233.282 72.22C233.282 71.1787 233.524 70.2473 234.008 69.426C234.492 68.59 235.152 67.93 235.988 67.446C236.839 66.962 237.785 66.72 238.826 66.72C239.647 66.72 240.41 66.8813 241.114 67.204C241.833 67.512 242.441 67.9593 242.94 68.546L241.356 70.152C241.048 69.7853 240.674 69.514 240.234 69.338C239.809 69.1473 239.339 69.052 238.826 69.052C238.225 69.052 237.689 69.1913 237.22 69.47C236.765 69.734 236.406 70.1007 236.142 70.57C235.893 71.0393 235.768 71.5893 235.768 72.22C235.768 72.836 235.893 73.386 236.142 73.87C236.406 74.3393 236.765 74.7133 237.22 74.992C237.689 75.256 238.225 75.388 238.826 75.388C239.339 75.388 239.809 75.3 240.234 75.124C240.674 74.9333 241.048 74.6547 241.356 74.288L242.94 75.894C242.441 76.4807 241.833 76.9353 241.114 77.258C240.41 77.566 239.647 77.72 238.826 77.72ZM244.707 77.5V66.94H247.127V77.5H244.707ZM245.917 65.004C245.506 65.004 245.161 64.8647 244.883 64.586C244.619 64.3073 244.487 63.9627 244.487 63.552C244.487 63.1413 244.619 62.7967 244.883 62.518C245.161 62.2393 245.506 62.1 245.917 62.1C246.342 62.1 246.687 62.2393 246.951 62.518C247.215 62.7967 247.347 63.1413 247.347 63.552C247.347 63.9627 247.215 64.3073 246.951 64.586C246.687 64.8647 246.342 65.004 245.917 65.004ZM254.263 77.72C253.31 77.72 252.444 77.478 251.667 76.994C250.904 76.51 250.296 75.8573 249.841 75.036C249.401 74.2 249.181 73.2687 249.181 72.242C249.181 71.2007 249.401 70.2693 249.841 69.448C250.296 68.612 250.904 67.952 251.667 67.468C252.444 66.9693 253.31 66.72 254.263 66.72C255.07 66.72 255.781 66.896 256.397 67.248C257.028 67.5853 257.526 68.0547 257.893 68.656C258.26 69.2573 258.443 69.9393 258.443 70.702V73.738C258.443 74.5007 258.26 75.1827 257.893 75.784C257.541 76.3853 257.05 76.862 256.419 77.214C255.788 77.5513 255.07 77.72 254.263 77.72ZM254.659 75.432C255.554 75.432 256.272 75.1313 256.815 74.53C257.372 73.9287 257.651 73.1587 257.651 72.22C257.651 71.5893 257.526 71.032 257.277 70.548C257.028 70.064 256.676 69.69 256.221 69.426C255.781 69.1473 255.26 69.008 254.659 69.008C254.072 69.008 253.552 69.1473 253.097 69.426C252.657 69.69 252.305 70.064 252.041 70.548C251.792 71.032 251.667 71.5893 251.667 72.22C251.667 72.8507 251.792 73.408 252.041 73.892C252.305 74.376 252.657 74.7573 253.097 75.036C253.552 75.3 254.072 75.432 254.659 75.432ZM257.497 77.5V74.662L257.915 72.088L257.497 69.536V66.94H259.917V77.5H257.497Z" fill="#1F2732"/>
</svg>
